<?xml version="1.0" standalone="no"?>
<!DOCTYPE svg PUBLIC "-//W3C//DTD SVG 20010904//EN"
 "http://www.w3.org/TR/2001/REC-SVG-20010904/DTD/svg10.dtd">
<svg version="1.0" xmlns="http://www.w3.org/2000/svg"
 width="300.000000pt" height="387.000000pt" viewBox="0 0 300.000000 387.000000"
 preserveAspectRatio="xMidYMid meet">
<metadata>
Created by potrace 1.10, written by Peter Selinger 2001-2011
</metadata>
<g transform="translate(0.000000,387.000000) scale(0.100000,-0.100000)"
fill="#000000" stroke="none">
<path d="M1554 3749 c-131 -24 -378 -106 -501 -166 -178 -86 -316 -208 -411
-363 -51 -83 -95 -202 -137 -375 -13 -55 -34 -131 -45 -170 -24 -80 -21 -134
11 -196 11 -23 18 -51 15 -63 -3 -12 -63 -99 -135 -194 -71 -95 -134 -186
-141 -202 -30 -72 21 -149 118 -176 69 -19 82 -34 82 -94 0 -26 7 -69 15 -96
8 -27 15 -61 15 -75 0 -24 54 -119 68 -119 4 0 18 -9 31 -19 l25 -19 -24 -70
c-21 -62 -22 -74 -11 -111 24 -81 103 -132 226 -146 28 -4 112 -7 187 -8 176
-3 180 -6 188 -136 5 -81 9 -94 45 -152 81 -132 104 -201 154 -479 26 -138 35
-168 55 -189 24 -24 27 -24 78 -12 75 17 264 94 393 161 220 113 409 254 597
447 178 183 183 197 119 334 -56 124 -75 212 -75 354 0 146 21 226 89 330 85
132 155 283 210 450 139 424 93 885 -117 1170 -145 197 -337 311 -648 385
-113 27 -331 26 -476 -1z m561 -62 c218 -65 344 -136 464 -262 263 -277 333
-762 177 -1230 -50 -148 -117 -293 -185 -398 -34 -52 -70 -120 -81 -153 -27
-78 -39 -201 -30 -310 11 -120 25 -172 78 -287 l46 -99 -20 -36 c-29 -55 -285
-308 -394 -389 -127 -95 -260 -175 -405 -244 -122 -58 -312 -129 -346 -129
-21 0 -19 -9 -55 190 -49 273 -82 373 -157 478 -28 39 -32 53 -37 140 -4 56
-12 106 -20 119 -25 40 -57 46 -255 53 -176 6 -194 8 -247 32 -90 42 -110 105
-63 198 14 27 25 56 25 65 0 8 -24 31 -54 50 -56 38 -76 68 -76 114 0 16 -7
46 -16 67 -11 24 -17 67 -17 112 0 83 -4 87 -101 111 -77 19 -106 44 -106 92
0 35 16 60 145 232 100 134 145 202 145 220 0 14 -11 47 -25 73 -32 61 -32
101 5 215 16 51 37 129 46 172 58 285 198 485 439 627 88 51 292 132 421 166
167 45 237 53 414 50 156 -3 171 -5 285 -39z"/>
<path d="M1640 3663 c-134 -21 -340 -76 -340 -91 0 -4 20 -8 44 -8 31 -1 47 3
51 13 4 13 8 13 22 2 14 -12 16 -12 8 0 -6 11 -4 13 8 8 9 -3 20 0 24 7 12 19
39 26 52 13 10 -9 15 -8 24 3 13 17 77 27 77 12 0 -5 7 -9 15 -9 8 0 15 6 15
13 0 6 7 14 15 18 8 3 15 1 15 -4 0 -6 12 -10 26 -10 19 0 25 4 20 15 -4 12
-2 14 11 6 11 -6 25 -5 41 2 18 8 25 8 31 -2 5 -8 11 -9 15 -3 3 5 -1 13 -10
16 -17 6 -122 6 -164 -1z"/>
<path d="M1840 3660 c0 -5 5 -10 11 -10 6 0 1 -8 -11 -18 -13 -11 -20 -24 -16
-30 11 -18 29 -14 22 4 -4 11 -2 15 8 11 8 -3 19 0 24 6 11 13 67 15 79 4 3
-4 1 -7 -5 -7 -7 0 -12 -4 -12 -9 0 -4 12 -6 28 -3 15 3 21 7 15 9 -7 3 -13 9
-13 15 0 6 8 4 19 -6 18 -16 32 -21 95 -32 75 -14 141 -41 140 -57 -1 -13 2
-14 16 -7 26 14 30 13 31 -12 0 -13 3 -17 6 -10 13 32 78 -14 69 -50 -3 -13
-3 -17 0 -10 9 19 51 14 81 -10 63 -53 159 -159 177 -195 10 -21 22 -46 27
-55 5 -10 9 -27 9 -38 0 -11 5 -20 11 -20 7 0 9 -10 5 -26 -6 -21 -4 -25 8
-21 9 4 18 2 21 -3 4 -6 1 -10 -6 -10 -8 0 -8 -4 1 -15 7 -8 16 -12 21 -9 5 3
6 -2 3 -11 -6 -14 -8 -14 -20 2 -10 14 -15 16 -25 6 -11 -11 -10 -13 4 -13 9
0 17 -7 17 -16 0 -9 -5 -13 -12 -9 -7 4 -4 -1 6 -9 11 -9 23 -16 28 -16 4 0 8
-9 8 -19 0 -11 4 -22 9 -26 6 -3 10 -13 11 -23 2 -53 6 -70 12 -66 4 3 7 -80
7 -183 -1 -151 -4 -191 -16 -205 -8 -9 -12 -21 -9 -26 3 -6 -1 -23 -9 -38 -8
-16 -19 -52 -25 -81 -6 -29 -15 -53 -19 -53 -5 0 -6 -11 -3 -25 3 -17 0 -25
-9 -25 -10 0 -14 -14 -14 -44 -1 -57 -8 -63 -41 -37 -15 11 -24 21 -20 21 4 0
2 9 -4 20 -12 22 -35 28 -27 6 3 -7 0 -19 -6 -25 -9 -9 -8 -11 6 -5 11 4 17 2
15 -5 -2 -6 11 -22 27 -35 23 -19 27 -27 18 -36 -9 -10 -17 -9 -34 4 -13 9
-33 16 -44 16 -14 -1 -9 -7 20 -23 44 -24 48 -44 15 -79 -10 -11 -16 -28 -13
-39 4 -13 0 -19 -11 -19 -9 0 -16 5 -16 10 0 15 -12 12 -39 -9 l-25 -19 30
-27 c18 -16 22 -25 12 -21 -13 4 -18 0 -18 -14 0 -11 -4 -20 -10 -20 -5 0 -10
-6 -10 -14 0 -8 -7 -16 -15 -20 -8 -3 -15 -10 -15 -16 0 -12 -40 -106 -64
-152 -9 -17 -10 -30 -4 -36 6 -6 3 -15 -8 -27 -13 -12 -14 -19 -5 -24 9 -6 8
-16 -3 -43 -9 -19 -13 -38 -10 -41 3 -2 5 -39 6 -81 1 -81 13 -135 73 -313 38
-112 38 -112 19 -140 -10 -15 -18 -31 -16 -35 1 -4 -6 -4 -16 -1 -15 6 -16 5
-2 -12 8 -10 10 -16 5 -13 -6 4 -44 -27 -85 -68 -40 -41 -84 -77 -96 -80 -20
-5 -37 -30 -39 -58 0 -5 -8 -10 -17 -12 -10 -1 -28 -13 -40 -27 -13 -13 -33
-27 -45 -31 -13 -4 -22 -13 -20 -19 1 -7 -3 -11 -10 -10 -6 1 -17 -4 -23 -12
-7 -8 -17 -15 -22 -15 -6 0 -23 -11 -40 -25 -16 -14 -35 -25 -43 -25 -7 0 -18
-7 -25 -16 -8 -8 -30 -23 -49 -33 -20 -10 -67 -34 -105 -55 -42 -22 -77 -34
-88 -30 -11 3 -18 0 -18 -8 0 -12 -64 -46 -99 -54 -8 -1 -21 5 -29 14 -12 15
-13 14 -8 -10 5 -22 3 -27 -14 -25 -13 1 -19 6 -15 14 7 21 -16 118 -25 103
-10 -17 -16 -3 -19 50 -2 25 -11 70 -22 100 -25 71 -25 87 -2 69 12 -10 9 0
-9 31 -64 112 -96 178 -95 195 1 11 -3 20 -10 20 -14 0 -30 15 -16 15 5 0 10
7 10 15 0 8 -6 15 -13 15 -10 0 -13 16 -11 60 2 33 0 60 -3 60 -3 0 -6 12 -8
28 -5 58 -7 67 -21 78 -8 6 -11 16 -7 22 4 7 3 12 -3 12 -5 0 -21 10 -35 23
-14 13 -43 29 -65 36 -22 6 -42 19 -44 29 -3 12 -5 11 -6 -5 0 -13 -5 -23 -11
-23 -5 0 -10 10 -10 23 0 16 -3 18 -9 9 -5 -8 -23 -13 -42 -12 -19 1 -36 1
-39 0 -3 -2 -26 -4 -52 -5 -36 -2 -48 1 -51 14 -3 9 -5 6 -6 -9 -1 -22 -3 -23
-12 -7 -7 12 -15 15 -26 9 -16 -9 -79 -1 -125 17 -22 8 -28 17 -28 41 0 17 7
41 15 54 8 12 16 34 17 49 1 15 5 27 9 27 10 0 6 33 -5 48 -6 8 -37 39 -68 70
-55 52 -57 57 -52 93 5 29 1 44 -15 67 -16 24 -21 44 -20 96 1 80 -25 127 -83
151 -21 8 -38 20 -38 27 0 6 -3 8 -7 5 -3 -4 -12 1 -20 11 -12 16 -13 16 -7 0
5 -14 1 -18 -19 -18 -21 0 -24 4 -19 23 3 12 18 38 34 57 44 54 45 55 63 89
16 31 17 32 35 16 18 -16 18 -15 14 13 -4 24 1 34 21 51 15 11 24 25 20 31 -7
11 7 41 21 43 5 1 8 8 6 15 -2 6 6 12 18 12 11 0 20 -4 20 -9 0 -5 6 -8 14 -7
19 3 46 26 46 40 0 7 -3 6 -8 -2 -5 -7 -19 -14 -31 -17 -19 -3 -22 -1 -18 15
3 10 0 21 -6 23 -11 3 -8 11 18 57 13 22 13 25 0 28 -19 4 -19 12 1 27 11 8
14 19 10 33 -4 12 -11 20 -15 18 -4 -3 -15 4 -24 15 -16 18 -16 19 0 19 15 0
15 1 1 13 -19 15 -31 47 -18 47 6 0 10 -6 10 -12 0 -9 4 -8 10 2 6 8 8 33 5
55 l-5 40 19 -40 c11 -22 20 -45 20 -51 1 -6 8 -17 16 -24 14 -11 14 -10 6 13
-6 15 -8 34 -4 44 4 10 2 14 -4 10 -6 -4 -20 15 -32 45 -25 61 -26 66 -3 64
13 -1 17 7 17 32 0 17 3 32 7 32 4 0 6 18 3 40 -3 22 -2 40 2 40 5 0 42 -10
83 -21 41 -11 100 -26 130 -32 51 -10 53 -11 25 -18 -22 -5 -24 -7 -8 -8 44
-2 53 -11 53 -57 0 -24 4 -44 9 -44 8 0 35 99 29 105 -14 13 -123 47 -206 66
-57 12 -105 27 -108 31 -8 12 18 10 67 -7 24 -8 73 -19 108 -24 35 -6 81 -20
103 -31 22 -12 43 -18 46 -15 8 8 -29 33 -60 39 -16 3 -28 11 -28 17 0 8 4 8
15 -1 9 -7 18 -11 20 -8 12 12 -27 29 -76 35 -51 5 -53 4 -34 -10 26 -21 7
-22 -22 -2 -12 9 -26 15 -30 14 -4 -1 -19 -1 -33 1 -23 1 -24 2 -5 10 14 7 8
8 -20 4 -30 -4 -36 -3 -25 5 13 9 12 11 -3 11 -10 0 -17 5 -15 12 6 17 35 18
49 2 6 -8 19 -14 28 -14 9 0 12 3 6 8 -5 4 -16 18 -24 32 -13 23 -11 23 18 -5
25 -24 31 -26 25 -10 -10 29 -45 65 -57 58 -10 -6 1 39 13 47 4 3 12 14 19 25
7 11 10 13 8 4 -3 -9 -1 -22 4 -30 7 -11 9 -8 9 9 0 13 4 20 10 17 6 -3 10 0
10 9 0 8 -5 16 -12 18 -8 3 -4 12 10 26 12 12 22 25 22 28 0 3 6 11 13 18 16
17 63 15 60 -2 -2 -7 2 -12 7 -12 6 0 10 4 10 9 0 14 -41 41 -52 35 -14 -9 -9
17 7 33 14 13 19 11 55 -15 22 -16 36 -32 32 -37 -4 -4 3 -2 16 4 24 13 28 26
10 37 -7 4 -8 3 -4 -4 4 -7 4 -12 0 -12 -13 0 -75 42 -70 47 3 3 18 -2 33 -12
l28 -18 -24 26 c-21 23 -22 28 -9 41 13 13 19 13 44 0 16 -9 36 -22 45 -30 8
-8 20 -14 26 -14 5 0 28 -18 51 -41 41 -40 41 -40 28 -9 -10 25 -84 90 -93 82
-5 -3 -63 33 -63 40 0 8 40 32 55 33 6 1 9 7 7 14 -2 8 3 11 13 8 8 -4 15 -2
15 4 0 6 7 3 16 -5 8 -9 21 -16 27 -15 9 0 8 2 0 6 -21 8 -15 40 10 47 15 4
35 -3 65 -24 33 -24 41 -26 32 -11 -16 31 -12 41 18 41 21 0 24 -2 12 -10 -8
-5 -10 -10 -5 -10 6 1 19 7 29 15 11 8 30 15 43 15 13 0 23 5 23 10 0 6 -11 8
-27 3 -43 -11 -115 -5 -141 11 -12 7 -102 -36 -174 -85 -128 -87 -224 -200
-284 -336 -30 -66 -106 -362 -97 -377 3 -5 1 -6 -5 -2 -11 7 -16 -12 -15 -51
1 -7 -3 -13 -8 -13 -5 0 -9 -22 -9 -50 0 -36 8 -64 27 -98 41 -73 33 -91 -127
-308 -77 -104 -140 -197 -140 -206 0 -22 21 -33 94 -48 42 -9 68 -21 89 -42
29 -28 29 -31 23 -100 -7 -64 -5 -72 14 -93 23 -24 26 -47 15 -101 -6 -29 -3
-34 38 -63 63 -43 99 -88 92 -115 -4 -11 -17 -46 -31 -78 -19 -45 -22 -61 -14
-83 18 -47 64 -58 275 -65 196 -7 231 -14 273 -53 39 -36 52 -73 56 -158 3
-76 7 -89 65 -205 54 -107 67 -147 101 -292 22 -92 42 -187 46 -210 4 -23 10
-44 13 -46 12 -8 204 70 321 129 213 106 378 224 554 395 119 115 166 173 166
203 0 11 -16 58 -35 106 -115 289 -99 545 48 759 43 65 140 272 181 391 59
168 79 284 79 456 1 173 -16 273 -70 429 -60 174 -117 259 -242 358 -131 105
-316 181 -506 208 -89 12 -115 12 -115 0z m690 -1745 c11 -13 8 -15 -14 -15
-25 0 -33 10 -19 23 10 11 19 8 33 -8z"/>
<path d="M1735 3630 c-44 -20 -36 -26 14 -9 17 6 31 15 31 20 0 5 -1 9 -2 8
-2 0 -21 -9 -43 -19z"/>
<path d="M1773 3612 c-10 -6 -9 -13 3 -30 15 -22 44 -30 44 -12 0 6 -6 10 -14
10 -9 0 -12 7 -9 20 6 21 -3 25 -24 12z"/>
<path d="M1722 3587 c-9 -10 -8 -18 3 -33 13 -18 14 -18 8 5 -5 20 -3 23 11
18 11 -5 16 -3 14 5 -6 18 -24 20 -36 5z"/>
<path d="M1662 3577 c-22 -13 -22 -13 14 -29 30 -14 35 -14 30 -1 -3 8 -6 17
-6 19 0 3 -4 2 -10 -1 -5 -3 -10 -2 -10 4 0 5 6 12 13 14 6 3 8 6 2 6 -5 0
-20 -5 -33 -12z"/>
<path d="M1216 3545 c-73 -31 -78 -35 -37 -35 19 0 30 4 26 10 -4 6 6 10 22
10 22 0 25 -2 13 -10 -9 -6 -10 -10 -3 -10 6 0 18 7 26 15 8 8 17 11 21 8 3
-4 6 3 6 15 0 27 -1 27 -74 -3z"/>
<path d="M1485 3510 c-8 -12 53 -75 63 -65 4 3 -8 19 -27 34 -25 21 -30 30
-20 34 8 3 9 6 2 6 -6 1 -15 -4 -18 -9z"/>
<path d="M2173 3427 c-2 -78 2 -79 12 -4 6 47 7 48 26 31 10 -9 19 -13 19 -7
0 10 -24 34 -45 46 -6 3 -11 -22 -12 -66z"/>
<path d="M1430 3455 c0 -6 23 -32 52 -60 28 -27 46 -40 40 -30 -14 26 -92 102
-92 90z"/>
<path d="M1366 3443 c-3 -4 -6 -12 -6 -20 0 -14 36 -18 44 -5 6 10 -30 33 -38
25z"/>
<path d="M1684 3441 c3 -5 15 -44 25 -88 14 -57 21 -73 27 -59 8 21 -34 156
-49 156 -4 0 -6 -4 -3 -9z"/>
<path d="M1500 3435 c0 -2 12 -17 28 -33 33 -34 62 -77 80 -116 18 -42 26 -25
10 23 -8 23 -18 38 -22 34 -4 -4 -9 3 -12 15 -4 12 -14 24 -24 27 -9 3 -22 17
-28 30 -10 21 -32 35 -32 20z"/>
<path d="M1405 3400 c-3 -6 4 -10 17 -10 l23 -1 -25 -14 c-25 -15 -25 -15 14
-13 35 3 42 -1 63 -31 12 -18 20 -37 17 -42 -3 -5 -1 -9 5 -9 30 0 17 28 -34
76 -58 55 -69 61 -80 44z"/>
<path d="M1020 3380 c0 -6 3 -10 8 -10 4 0 30 -16 57 -36 34 -24 42 -34 25
-29 -23 7 -24 6 -6 -7 14 -11 24 -12 42 -4 13 6 20 14 16 17 -20 18 -142 77
-142 69z"/>
<path d="M1124 3371 c8 -12 66 -32 66 -23 0 7 -48 32 -63 32 -4 0 -6 -4 -3 -9z"/>
<path d="M2172 3307 c-6 -19 -7 -50 -3 -69 7 -30 8 -26 14 31 8 73 3 89 -11
38z"/>
<path d="M985 3296 c46 -37 85 -58 85 -47 0 6 -7 11 -15 11 -8 0 -15 5 -15 10
0 6 -6 10 -13 10 -8 0 -22 9 -32 20 -10 11 -23 20 -29 20 -6 0 3 -11 19 -24z"/>
<path d="M1454 3267 c-16 -12 -41 -31 -56 -40 -16 -10 -28 -22 -28 -28 0 -6
11 -2 24 8 13 10 34 25 46 33 49 33 55 39 49 45 -4 3 -19 -5 -35 -18z"/>
<path d="M1236 3249 c-3 -17 -5 -43 -5 -58 1 -14 5 -2 10 28 10 58 6 83 -5 30z"/>
<path d="M1654 3244 c13 -26 22 -32 55 -36 22 -2 37 0 35 4 -3 5 -18 8 -34 8
-19 0 -35 9 -50 28 l-21 27 15 -31z"/>
<path d="M1090 3203 c0 -15 25 -34 34 -26 4 4 4 0 1 -8 -3 -9 4 -23 17 -34 13
-11 17 -13 11 -5 -23 26 -13 34 12 10 14 -13 25 -19 25 -14 -1 15 -48 64 -63
64 -7 0 -18 5 -25 12 -8 8 -12 8 -12 1z"/>
<path d="M2215 3130 c4 -25 10 -49 15 -54 5 -4 4 11 -1 35 -14 63 -20 72 -14
19z"/>
<path d="M1979 3069 c-8 -15 -8 -19 0 -15 6 4 11 3 11 -3 0 -5 -6 -12 -12 -14
-10 -4 -10 -6 -1 -6 15 -1 44 39 37 51 -9 14 -23 9 -35 -13z"/>
<path d="M2074 3062 c5 -13 -2 -30 -19 -50 l-25 -30 24 11 c13 7 22 15 20 19
-3 4 4 16 15 27 l21 21 -21 11 c-18 9 -20 8 -15 -9z"/>
<path d="M864 2999 c-3 -5 -3 -9 -1 -9 3 0 21 -7 40 -15 28 -12 35 -12 31 -2
-6 17 -62 38 -70 26z"/>
<path d="M953 2975 c-3 -9 2 -22 13 -30 21 -16 48 -20 39 -6 -3 5 0 13 6 17 8
5 9 3 4 -6 -6 -10 -2 -12 16 -7 13 4 32 7 42 7 9 0 17 4 17 8 0 5 -21 7 -47 6
-55 -4 -86 3 -78 17 4 5 4 9 0 9 -3 0 -8 -7 -12 -15z"/>
<path d="M1125 2943 c-16 -2 -37 -7 -45 -10 -8 -3 -26 -6 -39 -7 -24 -1 -38
-30 -20 -42 5 -3 8 0 7 7 -4 18 60 32 112 23 64 -11 164 -8 168 5 2 6 11 12
20 12 10 1 -1 5 -23 10 -41 8 -126 9 -180 2z m175 -19 c0 -2 -35 -3 -77 -2
-70 1 -73 2 -28 7 48 6 105 3 105 -5z"/>
<path d="M750 2861 c8 -5 35 -11 60 -15 l45 -6 -50 15 c-56 16 -77 19 -55 6z"/>
<path d="M1379 2838 c-1 -2 -3 -56 -4 -122 -2 -69 -7 -121 -13 -125 -7 -4 -7
-12 -2 -20 6 -10 11 -3 19 25 6 21 11 50 11 64 l0 25 153 3 c83 2 156 8 161
13 6 5 -57 7 -155 5 -90 -3 -153 -2 -139 1 38 7 51 25 15 21 -29 -3 -30 -1
-37 46 -4 28 -5 53 -2 58 3 4 3 8 0 8 -3 0 -7 -1 -7 -2z"/>
<path d="M983 2798 c-1 -13 -5 -48 -10 -78 -4 -30 -6 -89 -3 -130 5 -74 5 -74
13 49 4 69 12 130 18 137 10 12 3 44 -10 44 -4 0 -8 -10 -8 -22z"/>
<path d="M1425 2802 c-14 -10 -15 -52 -1 -52 7 0 12 14 11 30 0 17 0 30 0 30
0 0 -4 -4 -10 -8z"/>
<path d="M723 2758 c2 -7 12 -12 21 -12 9 1 16 -4 16 -11 0 -7 6 -16 13 -18 9
-4 8 -8 -3 -16 -8 -5 -12 -12 -10 -15 3 -2 19 8 35 22 17 15 26 24 22 20 -5
-3 -25 5 -44 18 -40 27 -57 31 -50 12z"/>
<path d="M870 2736 c0 -8 -12 -19 -27 -24 -16 -6 -48 -29 -73 -52 -30 -27 -37
-37 -20 -29 14 7 28 16 31 22 4 5 28 21 55 36 42 23 69 61 43 61 -5 0 -9 -6
-9 -14z"/>
<path d="M2654 2711 c7 -11 -31 -140 -78 -260 -20 -52 -35 -96 -33 -97 5 -6
59 120 88 208 7 20 16 35 20 32 4 -2 18 -25 30 -49 12 -25 26 -45 30 -45 5 0
6 -7 3 -15 -4 -10 0 -15 10 -15 14 0 15 3 4 22 -51 86 -76 143 -69 157 5 9 6
22 4 29 -7 19 14 14 21 -5 4 -9 2 -20 -5 -23 -8 -6 -8 -9 0 -14 6 -4 11 -3 11
3 0 6 7 8 16 4 11 -4 7 8 -13 35 -15 23 -32 41 -36 42 -5 0 -6 -4 -3 -9z"/>
<path d="M684 2664 c13 -32 12 -39 -6 -38 -10 1 -14 -4 -11 -13 5 -12 8 -11
23 2 18 17 17 50 -3 62 -7 4 -8 0 -3 -13z"/>
<path d="M1655 2646 l-39 -13 34 -6 c21 -5 36 -3 40 4 4 6 10 10 14 10 23 -3
30 0 16 9 -17 11 -13 11 -65 -4z"/>
<path d="M2593 2603 c-7 -2 -13 -19 -13 -36 0 -35 14 -26 24 16 3 15 5 27 4
26 -2 0 -9 -3 -15 -6z"/>
<path d="M1625 2589 c-44 -11 -70 -28 -33 -23 80 11 98 16 93 25 -7 10 -6 10
-60 -2z"/>
<path d="M1605 2543 c-11 -3 -24 -9 -30 -15 -13 -13 76 0 90 13 9 9 -24 10
-60 2z"/>
<path d="M1389 2514 c-8 -10 -5 -12 15 -8 17 3 26 0 26 -8 0 -9 3 -8 10 2 8
13 10 12 10 -2 0 -10 4 -18 9 -18 6 0 9 9 8 19 -1 23 -62 34 -78 15z"/>
<path d="M1497 2490 c-29 -32 -21 -51 9 -20 40 40 46 50 31 50 -8 0 -26 -13
-40 -30z"/>
<path d="M1595 2504 l-30 -14 40 5 c22 3 49 5 60 6 20 0 20 0 0 9 -28 12 -36
11 -70 -6z"/>
<path d="M2540 2458 c-13 -29 -26 -57 -28 -62 -3 -5 1 -7 8 -4 14 4 53 95 48
110 -2 5 -14 -15 -28 -44z"/>
<path d="M1163 2485 c3 -11 8 -29 12 -40 7 -18 6 -18 -14 2 -12 13 -28 20 -37
16 -19 -7 -15 -32 8 -46 35 -22 97 38 69 66 -8 8 -11 7 -11 -3 0 -9 -5 -8 -16
6 -15 19 -15 19 -11 -1z"/>
<path d="M660 2436 c7 -19 4 -26 -16 -36 -21 -12 -24 -25 -6 -25 4 0 13 -4 19
-8 9 -6 11 -3 7 7 -3 9 -2 16 4 16 6 0 9 8 7 18 -2 9 -4 25 -4 35 -1 9 -5 17
-11 17 -6 0 -6 -9 0 -24z"/>
<path d="M1525 2441 c-3 -6 3 -15 14 -20 24 -14 31 -14 31 -1 0 14 -38 32 -45
21z"/>
<path d="M1830 2441 c0 -10 35 -21 68 -21 13 0 21 4 17 10 -3 5 -11 7 -19 4
-7 -3 -25 0 -39 5 -15 6 -27 7 -27 2z"/>
<path d="M1508 2373 c-9 -2 -40 -40 -68 -84 -28 -44 -46 -78 -40 -74 7 4 9 -2
4 -21 l-7 -27 22 22 c11 11 21 24 21 28 0 3 11 21 26 40 14 18 21 33 17 33 -5
0 -17 -14 -27 -31 -10 -17 -20 -28 -23 -25 -9 9 48 95 68 101 10 4 19 13 19
21 0 17 5 17 33 2 20 -10 21 -10 8 5 -13 17 -21 19 -53 10z"/>
<path d="M1063 2346 c-9 -11 -6 -16 14 -25 14 -7 28 -9 31 -6 3 3 0 5 -6 5 -7
0 -11 3 -11 8 5 32 -8 40 -28 18z"/>
<path d="M1572 2338 c-6 -6 -12 -23 -12 -36 0 -24 -23 -56 -34 -45 -3 3 -10
-7 -16 -22 -6 -15 -19 -39 -29 -54 -10 -14 -16 -32 -13 -40 2 -8 0 -11 -6 -7
-5 3 -12 0 -15 -7 -3 -8 1 -14 8 -14 7 0 27 28 45 61 18 34 41 70 51 82 11 11
19 27 19 35 0 8 5 20 11 26 6 6 10 16 8 23 -3 8 -8 7 -17 -2z"/>
<path d="M1385 2310 c-19 -37 -19 -51 1 -25 26 34 36 55 25 55 -6 0 -17 -13
-26 -30z"/>
<path d="M1752 2226 c-26 -25 -44 -47 -42 -50 3 -3 23 13 45 34 22 21 48 39
57 40 25 0 33 20 8 20 -12 0 -42 -20 -68 -44z"/>
<path d="M1463 2202 c-32 -44 -45 -72 -33 -72 6 0 13 8 17 18 3 9 15 30 26 45
25 37 17 45 -10 9z"/>
<path d="M1521 2128 c-17 -23 -31 -51 -31 -62 0 -10 2 -17 4 -15 9 9 67 119
62 119 -2 0 -18 -19 -35 -42z"/>
<path d="M1523 2035 c-26 -40 -28 -46 -11 -42 13 2 40 55 36 68 -2 5 -13 -7
-25 -26z"/>
<path d="M2451 1967 c-11 -28 -8 -31 18 -15 25 15 26 24 6 32 -10 4 -19 -2
-24 -17z"/>
<path d="M1068 1953 c-10 -2 -18 -10 -18 -17 0 -10 8 -11 35 -2 55 17 40 34
-17 19z"/>
<path d="M755 1855 c-22 -19 -37 -35 -33 -35 5 0 18 9 30 20 13 10 32 26 43
34 11 9 16 15 10 15 -5 0 -28 -15 -50 -34z"/>
<path d="M934 1738 c-4 -7 -4 -10 1 -6 5 5 14 -1 21 -11 15 -20 84 -65 84 -53
-1 4 -23 24 -50 45 -35 27 -51 34 -56 25z"/>
<path d="M880 1735 c0 -8 109 -83 130 -90 23 -7 23 -7 7 9 -9 10 -22 14 -28
11 -6 -4 -13 2 -16 14 -3 12 -11 21 -18 21 -7 0 -18 6 -24 14 -10 12 -51 29
-51 21z"/>
<path d="M860 1712 c0 -14 16 -30 63 -66 37 -28 48 -33 45 -19 -2 9 -19 28
-38 40 -19 13 -43 30 -52 38 -10 8 -18 11 -18 7z"/>
<path d="M786 1682 c-8 -7 14 -32 28 -32 7 0 22 -13 34 -30 24 -31 47 -39 55
-17 3 9 8 9 23 -3 10 -8 1 5 -21 28 -24 26 -45 40 -54 37 -8 -3 -18 0 -22 6
-8 14 -34 20 -43 11z"/>
<path d="M770 1637 c0 -24 51 -67 80 -66 15 0 19 3 10 6 -8 3 -32 22 -52 41
-28 26 -38 32 -38 19z"/>
<path d="M1898 1574 c-21 -15 -40 -35 -43 -45 -4 -11 -11 -19 -16 -19 -17 0 9
-37 31 -43 19 -5 20 -4 3 24 -9 15 -15 30 -12 32 2 2 28 21 58 41 34 23 46 36
35 36 -11 0 -36 -12 -56 -26z"/>
<path d="M2070 1456 c20 -18 65 -32 56 -17 -4 6 -14 11 -22 11 -8 0 -14 5 -14
10 0 6 -8 10 -17 10 -15 0 -15 -2 -3 -14z"/>
<path d="M2191 1457 c-7 -7 -35 -34 -61 -60 -38 -37 -47 -53 -42 -70 l7 -22 3
23 c4 24 94 122 112 122 5 0 10 5 10 10 0 13 -12 12 -29 -3z"/>
<path d="M1837 1440 c-3 -11 1 -21 10 -24 11 -4 13 -2 9 9 -3 8 -1 15 3 15 5
0 12 -6 14 -12 4 -10 6 -10 6 -1 1 7 -8 17 -18 22 -15 9 -20 7 -24 -9z"/>
<path d="M1890 1427 c0 -3 -7 -32 -15 -64 -21 -79 -58 -304 -51 -310 6 -6 10
13 31 142 9 55 23 129 31 164 8 35 12 66 9 69 -3 3 -5 3 -5 -1z"/>
<path d="M2023 1292 c-28 -22 -113 -148 -113 -167 0 -8 -4 -15 -10 -15 -5 0
-10 -4 -10 -10 0 -21 18 -9 30 20 7 17 17 30 22 30 5 0 6 5 3 10 -3 6 0 10 7
10 7 0 21 18 31 39 10 21 29 51 43 66 29 32 28 41 -3 17z"/>
<path d="M1815 1281 c8 -14 -16 -102 -26 -95 -5 3 -9 2 -9 -3 0 -13 29 -89 30
-78 3 41 20 154 26 168 4 12 1 17 -11 17 -9 0 -14 -4 -10 -9z"/>
<path d="M1665 1169 c-4 -5 -14 -8 -22 -5 -8 4 -11 2 -7 -5 4 -6 1 -15 -7 -19
-14 -9 -22 -40 -9 -40 4 0 11 -12 14 -26 4 -15 9 -24 12 -22 2 3 0 18 -6 34
-10 26 -8 31 19 56 17 15 26 30 21 33 -5 3 -12 0 -15 -6z"/>
<path d="M1740 1175 c0 -22 35 -125 43 -125 5 0 7 6 4 14 -3 8 -11 32 -16 53
-11 38 -31 76 -31 58z"/>
<path d="M1556 1113 c-20 -21 -37 -42 -38 -48 -1 -5 -7 -16 -14 -22 -21 -21
-57 -84 -51 -89 3 -3 11 5 18 18 14 27 70 99 113 146 42 45 17 40 -28 -5z"/>
<path d="M1720 1132 c0 -26 20 -72 32 -72 4 0 0 19 -9 43 -20 52 -23 56 -23
29z"/>
<path d="M1700 1114 c0 -7 -16 -35 -35 -63 -19 -28 -49 -78 -66 -111 -22 -43
-37 -62 -56 -66 -17 -5 -21 -9 -12 -14 9 -6 7 -17 -10 -45 -12 -21 -20 -40
-17 -42 2 -3 14 12 25 34 27 50 26 42 -4 -37 -21 -57 -32 -66 -25 -20 1 8 0
13 -2 10 -2 -3 -10 -14 -18 -24 -10 -14 -11 -17 -2 -12 10 6 11 1 7 -21 -4
-24 -4 -25 5 -8 9 18 10 17 5 -5 -2 -14 -5 -29 -5 -35 0 -5 -5 -3 -11 5 -9 12
-10 12 -5 -3 3 -10 6 -31 7 -45 0 -18 6 -9 16 28 8 30 25 82 38 115 13 33 29
75 35 93 9 23 25 38 54 51 22 11 33 20 24 20 -9 1 -20 -3 -23 -9 -3 -5 -13
-10 -21 -10 -12 0 -11 6 5 29 12 16 25 39 30 52 9 23 9 23 16 4 20 -60 39 -94
48 -88 6 4 8 0 4 -11 -7 -18 31 -116 46 -116 4 0 6 -10 2 -22 -5 -21 -5 -21 6
-4 9 14 8 24 -1 42 -11 19 -11 26 0 39 7 8 10 15 6 15 -6 0 22 49 34 60 3 3 1
21 -6 40 l-11 34 -21 -39 c-17 -35 -18 -42 -5 -54 9 -8 11 -16 5 -20 -5 -3
-11 -13 -14 -21 -5 -12 -7 -12 -13 4 -5 11 -3 22 6 28 11 8 10 9 -3 4 -11 -3
-18 0 -18 8 0 7 -7 19 -15 26 -23 19 -18 28 20 44 21 9 39 26 45 41 10 27 30
26 30 -2 0 -9 2 -14 5 -11 7 7 -5 58 -14 58 -3 0 -15 -14 -26 -31 -28 -42
-103 -81 -89 -46 3 8 0 26 -6 41 -8 22 -6 32 12 57 18 24 24 27 31 14 4 -8 5
-21 1 -28 -5 -9 -4 -9 5 -1 9 8 8 19 -3 45 -9 19 -15 29 -16 23z"/>
<path d="M1583 1068 c-58 -66 -143 -208 -124 -208 5 0 14 7 21 15 7 8 16 13
20 10 4 -2 16 5 26 16 16 18 16 19 1 13 -9 -3 -17 -11 -17 -17 0 -6 -3 -7 -6
-4 -7 7 33 74 70 117 l21 25 -22 -19 c-33 -27 -28 -7 8 37 33 40 35 51 2 15z"/>
<path d="M1928 1052 c-16 -9 -28 -20 -28 -25 0 -19 43 -89 58 -94 9 -3 25 -15
34 -27 9 -11 20 -17 24 -13 5 4 -12 26 -38 47 -54 46 -65 83 -35 111 25 23 21
24 -15 1z"/>
<path d="M1847 949 c-19 -34 -15 -49 11 -49 15 1 15 2 -1 11 -17 10 -17 12 -2
29 10 11 15 24 14 29 -2 6 -12 -3 -22 -20z"/>
<path d="M1417 899 c-28 -41 -30 -56 -4 -46 14 5 51 87 39 87 -4 -1 -20 -19
-35 -41z"/>
<path d="M1643 872 c-7 -4 -19 -23 -28 -42 -9 -19 -26 -53 -37 -75 -12 -22
-21 -52 -21 -67 0 -15 -4 -25 -9 -22 -4 3 -5 -2 -2 -10 6 -16 -10 -38 -36 -49
-8 -4 -3 -5 12 -3 15 1 29 0 30 -5 2 -4 16 -5 31 -2 21 4 32 14 39 35 8 23 13
27 20 16 5 -8 6 -2 2 17 -4 24 -3 27 6 15 9 -12 10 -11 5 7 -3 13 -2 30 3 39
9 15 11 15 22 -6 10 -19 10 -22 -1 -18 -10 4 -14 -4 -15 -30 -1 -34 0 -35 10
-12 13 31 28 42 37 29 4 -7 9 -4 12 6 4 9 3 13 -3 10 -6 -3 -10 -1 -10 5 0 6
-4 8 -10 5 -14 -9 -13 8 2 23 9 9 9 12 0 12 -7 0 -12 -5 -12 -12 0 -6 -7 -4
-18 5 -18 16 -20 13 -42 -58 -20 -64 -27 -75 -46 -75 -21 0 -22 3 -13 35 11
37 46 134 73 198 17 40 17 41 -1 29z"/>
<path d="M1480 846 c0 -7 -7 -27 -15 -42 -18 -36 -21 -64 -3 -46 6 6 12 19 13
29 0 10 3 23 6 28 14 24 18 45 9 45 -6 0 -10 -6 -10 -14z"/>
<path d="M1362 819 c-13 -5 -28 -7 -33 -3 -18 11 -8 -10 36 -73 25 -35 52 -78
61 -94 8 -17 18 -29 20 -26 2 2 -11 32 -31 67 -19 34 -35 70 -35 81 0 10 -5
18 -11 17 -6 -2 -14 3 -16 10 -3 7 4 12 19 12 13 0 30 5 38 10 12 8 12 10 -5
9 -11 0 -31 -4 -43 -10z"/>
</g>
</svg>
