<?xml version="1.0" standalone="no"?>
<!DOCTYPE svg PUBLIC "-//W3C//DTD SVG 20010904//EN"
 "http://www.w3.org/TR/2001/REC-SVG-20010904/DTD/svg10.dtd">
<svg version="1.0" xmlns="http://www.w3.org/2000/svg"
 width="275.000000pt" height="260.000000pt" viewBox="0 0 275.000000 260.000000"
 preserveAspectRatio="xMidYMid meet">
<metadata>
Created by potrace 1.10, written by Peter Selinger 2001-2011
</metadata>
<g transform="translate(0.000000,260.000000) scale(0.100000,-0.100000)"
fill="#000000" stroke="none">
<path d="M1279 2365 c-1 -3 -3 -9 -4 -15 -1 -5 -4 -13 -5 -17 -2 -5 -4 -12 -5
-18 -1 -5 -7 -23 -13 -38 -7 -16 -12 -35 -12 -44 0 -22 -22 -96 -32 -108 -4
-5 -8 -19 -8 -31 0 -13 -5 -26 -11 -29 -6 -4 -8 -13 -5 -20 2 -7 1 -16 -4 -21
-5 -5 -13 -27 -19 -49 -5 -22 -15 -60 -21 -85 -6 -25 -16 -54 -22 -65 -6 -11
-12 -29 -14 -40 -1 -11 -5 -29 -9 -40 -6 -16 -5 -17 4 -5 9 13 11 13 11 -1 0
-8 -5 -20 -12 -27 -9 -9 -9 -15 1 -24 10 -11 11 -9 5 6 -5 13 -4 17 3 13 7 -5
10 5 9 26 -2 17 3 37 9 42 15 13 38 68 25 60 -5 -3 -10 -1 -10 4 0 6 5 11 11
11 7 0 9 10 7 25 -3 15 2 32 14 45 14 15 18 29 14 46 -5 17 -3 23 4 19 11 -7
12 -4 14 38 1 16 10 33 20 39 13 7 15 12 6 18 -9 5 -7 17 6 46 9 21 18 44 18
49 3 19 27 100 36 123 5 12 16 22 24 22 8 0 16 5 18 12 5 15 38 20 35 5 -1 -6
8 -13 19 -15 21 -3 104 -86 659 -652 149 -151 282 -280 298 -287 29 -13 38
-27 11 -16 -14 5 -16 1 -12 -20 4 -19 0 -27 -13 -30 -21 -6 -29 0 -29 20 0 8
5 11 13 7 15 -8 -10 19 -148 163 -60 62 -113 109 -118 106 -6 -3 -7 -2 -4 4 8
13 -122 145 -135 137 -7 -5 -8 -2 -3 6 9 14 -193 223 -207 214 -5 -3 -7 -1 -6
4 4 13 -102 123 -112 117 -5 -3 -12 0 -16 6 -5 8 -3 9 7 4 8 -4 -1 8 -20 28
-19 20 -39 33 -44 30 -6 -3 -7 -2 -4 4 14 23 -87 99 -117 87 -8 -3 -22 -27
-30 -52 -44 -141 -226 -801 -226 -823 0 -26 16 -49 34 -49 6 0 3 5 -7 11 -11
7 -16 17 -12 29 3 10 7 27 9 37 11 55 60 238 80 298 40 120 46 141 46 161 1
10 9 44 20 74 11 30 19 66 20 78 0 13 6 38 14 55 8 18 22 58 31 89 20 64 41
91 55 68 4 -7 6 -20 3 -29 -5 -13 -3 -13 7 -4 10 9 20 4 47 -23 18 -19 38 -32
43 -29 5 3 12 0 16 -6 4 -8 3 -9 -4 -5 -7 4 -12 1 -12 -8 0 -9 4 -15 10 -13
13 3 160 -154 161 -173 0 -8 3 -10 5 -4 3 6 35 -20 72 -59 37 -39 150 -153
252 -254 181 -180 184 -183 162 -199 -33 -23 -27 -32 16 -24 39 7 74 -12 56
-30 -9 -9 -181 -16 -604 -26 -443 -11 -465 -11 -480 -18 -20 -8 -37 4 -48 33
-7 20 -10 22 -15 7 -11 -27 55 -92 100 -100 21 -3 245 1 498 9 440 14 531 18
620 29 32 4 37 2 24 -7 -23 -18 -31 -47 -14 -53 8 -4 12 -11 8 -18 -4 -6 -6
-20 -5 -31 2 -14 -8 -26 -30 -39 -17 -11 -133 -119 -257 -240 -124 -122 -299
-292 -388 -380 -173 -170 -247 -230 -276 -222 -9 2 -15 0 -11 -5 3 -5 12 -9
20 -9 18 0 18 -14 -1 -30 -13 -11 -14 -10 -9 6 6 17 5 17 -17 -3 -21 -19 -26
-20 -43 -7 -11 8 -28 12 -37 9 -13 -4 -19 2 -24 27 -11 51 -245 728 -266 770
-10 20 -16 45 -12 54 4 12 3 15 -5 10 -7 -4 -12 -3 -12 2 0 20 14 20 31 -1
l18 -22 1 23 c0 26 16 28 41 6 13 -12 19 -12 25 -3 5 8 3 10 -7 5 -8 -4 -3 1
10 12 22 18 23 21 9 41 -9 12 -17 19 -19 14 -2 -5 -19 -19 -36 -31 -32 -22
-34 -23 -61 -6 -35 20 -57 53 -45 65 17 17 53 19 53 3 0 -8 4 -12 10 -9 6 4 9
-4 7 -17 -3 -33 36 -32 43 2 4 18 12 24 25 23 11 -1 14 0 8 3 -18 8 -16 25 2
18 18 -7 21 26 3 44 -8 8 -8 12 -1 12 17 0 35 -28 27 -42 -6 -10 -4 -11 7 0
20 18 -12 46 -56 48 -40 1 -42 -2 -18 -28 22 -24 3 -49 -22 -28 -19 16 -19 44
0 64 22 22 18 36 -9 34 -14 -1 -22 -7 -19 -14 7 -19 -16 -55 -34 -52 -8 2 -20
-6 -27 -17 -6 -11 -17 -24 -23 -28 -15 -9 -18 -47 -4 -47 5 0 11 -12 14 -26 4
-25 3 -25 -37 -18 -22 3 -50 8 -61 10 -11 3 -45 7 -75 9 -46 3 -50 2 -25 -6
17 -5 48 -12 70 -15 22 -3 56 -8 75 -11 19 -3 43 -5 52 -5 31 1 41 -21 165
-378 41 -118 81 -233 88 -255 8 -22 22 -64 33 -94 11 -29 17 -62 14 -73 -4
-17 -11 -14 -53 28 -44 43 -65 75 -40 60 5 -4 11 -1 13 6 3 9 6 9 12 0 4 -7 2
-12 -4 -12 -6 0 -2 -14 10 -30 12 -17 26 -30 32 -30 6 0 4 8 -5 18 -10 10 -17
26 -17 34 0 18 -24 41 -33 32 -3 -4 -14 -4 -23 0 -13 5 -14 9 -4 21 7 9 10 18
6 22 -3 3 -6 0 -6 -7 0 -9 -6 -7 -19 6 -10 10 -16 24 -13 29 3 6 2 7 -3 3 -9
-8 -42 31 -37 45 1 4 -3 6 -10 5 -6 -2 -21 12 -34 30 -12 18 -25 32 -28 30 -9
-5 -34 36 -29 47 4 5 3 7 -2 3 -9 -8 -35 16 -51 46 -6 12 -16 20 -22 19 -7 -2
-12 4 -12 13 0 8 -4 12 -10 9 -5 -3 -10 -2 -10 4 0 6 -9 25 -20 43 l-19 32 3
-28 c3 -30 64 -99 79 -89 6 4 7 1 2 -6 -5 -9 13 -35 51 -75 91 -94 130 -139
118 -135 -14 5 -604 645 -604 655 0 5 16 -7 35 -26 19 -19 35 -30 35 -24 0 15
-59 66 -69 60 -10 -7 -46 43 -37 51 3 3 -6 19 -20 36 -18 21 -22 33 -15 40 6
6 11 21 11 34 0 28 -21 28 279 -2 159 -16 249 -21 260 -15 14 8 14 10 1 11
-64 8 -78 9 -99 9 -21 0 -22 2 -10 17 13 15 12 15 -12 0 -14 -10 -28 -15 -30
-13 -5 6 -115 18 -194 23 -33 2 -79 4 -102 6 -22 1 -39 5 -36 10 6 10 -5 9
-30 -4 -12 -7 -18 -8 -13 -3 285 296 417 440 420 456 3 21 17 39 26 33 4 -3
62 51 127 121 114 121 157 176 97 124 -23 -20 -22 -17 5 12 19 21 37 36 40 33
2 -3 11 1 20 9 9 8 21 15 26 15 6 1 10 5 10 10 0 15 15 26 38 26 18 0 23 8 29
44 4 24 15 52 23 61 9 10 13 20 8 23 -5 3 -29 -18 -53 -47 -59 -70 -761 -830
-812 -879 -60 -59 -77 -116 -50 -171 9 -17 46 -62 83 -101 37 -38 223 -241
414 -450 191 -209 365 -399 386 -422 26 -28 50 -44 74 -49 82 -15 74 -21 531
422 236 228 462 448 502 489 l72 75 0 65 0 66 -492 500 c-271 275 -500 505
-509 510 -18 9 -128 13 -130 4z m-61 -101 c0 -14 -3 -21 -7 -15 -9 15 -63 -37
-55 -52 4 -7 3 -9 -1 -4 -5 4 -17 0 -27 -10 -10 -9 -18 -12 -18 -7 0 7 100
114 106 114 1 0 2 -12 2 -26z m-187 -181 c-5 -10 -42 -49 -82 -88 l-72 -70 79
87 c43 49 80 88 82 88 1 0 -2 -8 -7 -17z m1357 -803 c-1 -21 -5 -25 -32 -26
-17 -1 -23 1 -13 3 9 2 14 9 11 14 -3 6 2 16 12 23 12 9 14 15 6 20 -7 4 -12
12 -12 19 0 6 6 3 14 -8 7 -11 14 -31 14 -45z"/>
<path d="M1130 2155 c-10 -12 -15 -13 -20 -4 -6 8 -9 8 -14 0 -4 -6 -2 -11 4
-11 7 0 9 -7 6 -16 -6 -14 -4 -15 9 -4 16 13 39 50 32 50 -3 0 -10 -7 -17 -15z"/>
<path d="M1071 1803 c-22 -71 -49 -159 -61 -198 -13 -38 -23 -77 -24 -85 -1
-9 -5 -21 -9 -27 -10 -16 -37 -106 -33 -110 7 -8 58 110 61 143 4 39 11 52 22
40 10 -10 -57 -203 -80 -233 -17 -21 -11 -33 7 -15 4 4 13 7 19 7 7 0 12 11
12 25 0 14 15 71 34 128 18 56 30 108 28 115 -3 7 -6 4 -6 -6 -1 -10 -5 -16
-9 -13 -5 3 6 51 25 106 18 56 32 105 31 108 -4 32 4 62 14 56 8 -5 9 -2 5 9
-3 10 -2 17 2 17 5 0 7 10 3 22 -3 14 -2 19 6 14 7 -4 12 -1 12 8 0 9 -4 16
-9 16 -6 0 -28 -57 -50 -127z"/>
<path d="M1087 1653 c-2 -5 -10 -33 -17 -63 -7 -30 -16 -62 -20 -70 -4 -9 -11
-31 -15 -50 -4 -19 -14 -47 -21 -62 -15 -28 -5 -39 14 -15 5 6 20 55 32 107
12 52 29 107 36 122 9 16 10 29 5 32 -5 4 -12 3 -14 -1z"/>
<path d="M2095 1420 c-2 -3 -41 -5 -87 -3 -75 2 -81 1 -58 -11 25 -15 150 -17
150 -4 0 5 7 8 16 8 8 0 12 -4 9 -10 -3 -5 -1 -10 4 -10 10 0 14 12 9 27 -4 9
-38 12 -43 3z"/>
<path d="M914 1406 c-3 -8 -16 -13 -30 -11 -13 1 -24 -2 -24 -6 0 -5 9 -9 21
-9 11 0 18 -4 14 -9 -9 -15 13 -23 32 -12 12 7 13 10 4 11 -9 0 -12 8 -9 25 6
27 1 34 -8 11z"/>
<path d="M1196 1405 c-11 -30 -7 -33 43 -32 38 2 47 5 39 15 -6 6 -20 12 -32
12 -12 0 -27 5 -33 11 -7 7 -12 6 -17 -6z"/>
<path d="M1738 1414 c-4 -3 -37 -7 -74 -7 -115 -3 -84 -22 39 -24 68 -2 107 1
98 6 -10 6 -3 9 23 9 24 0 34 -4 29 -11 -4 -7 1 -6 10 2 13 11 17 11 17 1 0
-8 2 -11 5 -8 3 3 3 12 0 20 -4 11 -20 14 -63 12 -72 -3 -70 -2 -52 -14 9 -6
10 -10 3 -10 -7 0 -16 7 -21 15 -4 9 -11 13 -14 9z"/>
<path d="M1303 1394 c0 -13 9 -15 54 -9 35 4 53 3 53 -4 0 -6 5 -11 11 -11 5
0 7 4 4 10 -4 6 23 9 77 6 73 -4 81 -3 63 10 -15 11 -41 13 -114 8 -52 -3 -99
-8 -103 -10 -4 -3 -16 0 -26 5 -14 8 -19 6 -19 -5z"/>
<path d="M1100 1235 c0 -27 26 -35 47 -14 17 17 4 39 -23 39 -19 0 -24 -5 -24
-25z"/>
<path d="M2200 1254 c-8 -2 -230 -10 -493 -20 -313 -11 -492 -21 -520 -29
l-42 -13 28 -11 c31 -12 37 -26 7 -18 -11 3 -18 1 -14 -4 3 -5 -2 -9 -10 -9
-19 0 -35 -29 -30 -56 2 -12 37 -125 79 -250 42 -126 94 -285 117 -354 43
-132 52 -150 75 -150 12 0 12 2 -1 15 -8 9 -38 89 -67 178 -28 89 -55 171 -60
182 -4 11 -25 74 -45 140 -20 66 -44 143 -54 171 -25 70 -24 114 4 116 12 0
32 3 46 5 38 5 169 12 440 23 472 19 600 22 600 15 0 -11 -51 -77 -55 -73 -4
4 -239 -224 -596 -578 -102 -101 -182 -184 -177 -184 6 0 97 86 204 190 107
105 201 190 209 190 8 0 15 9 15 20 0 11 3 20 8 20 4 0 99 90 210 201 l204
200 -16 25 c-14 20 -14 25 -3 30 8 3 18 4 23 3 5 -1 16 -1 24 0 11 1 11 4 2
13 -11 11 -77 18 -112 12z"/>
<path d="M420 1223 c0 -5 17 -9 38 -9 39 0 92 -8 207 -30 21 -4 27 -3 20 4
-18 19 -265 51 -265 35z"/>
<path d="M2005 1150 c2 -3 -8 -5 -23 -5 -38 2 -46 -5 -25 -20 10 -7 22 -10 28
-7 15 10 115 10 115 0 0 -4 8 -4 18 1 37 21 81 30 85 18 2 -6 6 -4 10 6 5 13
0 16 -23 14 -17 -1 -30 -5 -30 -9 0 -4 -12 -5 -27 -3 -16 2 -28 4 -28 5 0 0
-23 2 -52 3 -28 1 -50 0 -48 -3z"/>
<path d="M1034 1133 c-4 -10 -6 -25 -5 -33 2 -10 -2 -8 -12 5 -9 11 -19 16
-24 12 -4 -5 1 -15 11 -23 23 -16 31 -10 40 29 7 30 2 36 -10 10z"/>
<path d="M1817 1133 c3 -7 9 -11 13 -8 5 3 10 0 12 -7 3 -8 9 -8 19 -2 8 5 23
9 33 9 11 0 21 5 23 11 2 7 -15 11 -50 10 -39 -1 -53 -5 -50 -13z"/>
<path d="M1653 1125 c0 -12 10 -15 46 -13 29 1 46 -3 49 -11 3 -9 10 -7 24 6
11 10 22 17 24 16 2 -2 5 0 7 5 1 4 -32 8 -74 10 -63 2 -76 0 -76 -13z"/>
<path d="M516 1122 c-6 -10 9 -32 50 -73 31 -32 61 -56 65 -54 4 3 6 -1 5 -8
0 -7 35 -51 78 -97 44 -47 76 -77 73 -67 -4 10 -7 25 -7 33 0 9 -4 13 -9 10
-4 -3 -19 6 -31 19 -13 14 -20 25 -16 25 5 0 3 7 -4 15 -6 8 -17 13 -23 12 -6
-1 -20 15 -31 35 -12 21 -27 38 -34 38 -6 0 -11 6 -10 13 2 6 -3 11 -9 10 -7
-2 -13 5 -13 14 0 9 -3 14 -6 11 -7 -8 -44 28 -44 43 0 5 -4 8 -9 4 -5 -3 -11
3 -13 12 -3 14 -5 15 -12 5z"/>
<path d="M1448 1125 c-2 -3 -59 -6 -127 -8 -75 -3 -127 -9 -134 -16 -9 -9 -8
-11 5 -6 9 4 32 2 52 -3 20 -6 36 -7 36 -3 0 4 37 6 81 3 60 -3 80 -2 75 7 -4
6 0 11 11 12 75 2 152 -1 171 -6 13 -5 22 -3 22 3 0 6 -12 13 -27 15 -33 6
-159 7 -165 2z"/>
<path d="M900 1106 c14 -18 35 -52 44 -71 13 -28 46 -147 46 -165 0 -11 5 -20
10 -20 12 0 7 25 -26 125 -24 76 -53 145 -54 131 0 -5 -8 -2 -17 5 -17 13 -17
12 -3 -5z"/>
<path d="M1107 558 c6 -7 16 -30 23 -51 6 -21 14 -36 17 -33 8 8 -28 96 -40
96 -6 0 -6 -4 0 -12z"/>
</g>
</svg>
