<?xml version="1.0" standalone="no"?>
<!DOCTYPE svg PUBLIC "-//W3C//DTD SVG 20010904//EN"
 "http://www.w3.org/TR/2001/REC-SVG-20010904/DTD/svg10.dtd">
<svg version="1.0" xmlns="http://www.w3.org/2000/svg"
 width="300.000000pt" height="155.000000pt" viewBox="0 0 300.000000 155.000000"
 preserveAspectRatio="xMidYMid meet">
<metadata>
Created by potrace 1.10, written by Peter Selinger 2001-2011
</metadata>
<g transform="translate(0.000000,155.000000) scale(0.100000,-0.100000)"
fill="#000000" stroke="none">
<path d="M1376 1423 c-12 -13 -6 -53 9 -53 9 0 15 9 15 24 0 26 -12 40 -24 29z"/>
<path d="M1430 1416 c0 -8 6 -17 13 -19 9 -4 8 -8 -3 -16 -13 -9 -13 -11 2
-11 12 0 16 8 16 30 -1 30 -28 45 -28 16z"/>
<path d="M1500 1328 c0 -90 -26 -477 -36 -535 -4 -28 -12 -43 -21 -43 -12 0
-12 -3 1 -16 19 -18 20 -25 5 -22 -6 2 -14 -3 -17 -11 -3 -9 0 -11 8 -6 10 6
12 -2 7 -40 -4 -26 -7 -56 -7 -67 0 -11 -3 -17 -7 -15 -5 3 -9 -7 -9 -21 -2
-37 -8 -72 -11 -72 -2 0 -8 12 -13 26 -6 14 -14 22 -20 19 -14 -9 -13 -52 2
-57 20 -7 -51 -98 -100 -129 -82 -52 -79 -52 -497 -60 -104 -2 114 -6 485 -9
371 -3 679 -2 684 2 26 21 -1 22 -266 13 l-178 -6 0 28 c0 15 7 37 15 47 12
16 17 17 30 6 11 -9 12 -16 5 -25 -8 -9 -4 -12 12 -11 13 1 32 -2 43 -6 20 -9
20 -9 1 6 -11 9 -23 16 -28 16 -4 0 -8 7 -8 16 0 8 -4 13 -9 9 -18 -10 -21 14
-9 59 12 47 28 62 28 26 0 -26 29 -100 48 -122 8 -10 11 -18 6 -19 -12 -1 28
-17 45 -18 7 -1 0 11 -16 27 -26 24 -73 123 -73 154 0 21 80 -110 81 -133 0
-22 1 -23 9 -4 7 17 9 17 9 3 1 -10 6 -18 12 -18 5 0 8 4 4 9 -3 5 0 13 6 17
7 4 10 3 6 -2 -6 -10 13 -38 28 -40 6 -1 26 -5 45 -8 l35 -7 -33 15 c-18 9
-32 21 -30 28 1 7 -8 34 -20 59 -30 62 -47 149 -71 369 -12 102 -25 198 -29
215 l-8 29 -12 -44 c-6 -25 -19 -123 -28 -218 -10 -95 -19 -171 -21 -169 -7 7
-36 248 -48 407 -12 154 -13 158 -13 65 0 -55 4 -138 9 -185 17 -161 28 -246
35 -265 5 -13 -3 -9 -24 13 l-31 34 -4 146 -3 147 -2 -151 c-2 -149 -2 -151
-29 -175 -14 -13 -24 -19 -21 -14 3 6 14 82 23 170 9 88 21 165 26 171 5 6 6
14 2 17 -3 4 -2 7 3 7 5 0 10 96 12 220 3 153 0 220 -7 220 -7 0 -11 -27 -11
-72z m170 -578 c23 -217 40 -301 71 -361 16 -33 18 -44 8 -53 -9 -8 -10 -8 -5
2 6 10 -4 16 -25 14 -12 -2 -58 54 -94 113 -29 48 -35 67 -31 95 3 19 12 98
21 175 20 181 27 232 31 220 2 -5 13 -98 24 -205z m-170 -217 l-1 -88 -24 45
c-13 25 -24 50 -25 55 0 12 37 75 45 75 3 0 5 -39 5 -87z m49 53 c27 -42 27
-90 0 -160 -23 -64 -39 -79 -39 -39 0 22 2 25 10 13 6 -9 10 -10 10 -3 0 6 -4
15 -10 18 -13 8 -13 205 -1 205 5 0 19 -15 30 -34z m-49 -202 c0 -38 -4 -45
-30 -59 -16 -8 -46 -20 -67 -25 l-38 -10 45 6 c25 3 55 12 68 20 21 14 22 13
22 -11 0 -24 -2 -25 -64 -25 -93 0 -102 6 -66 41 16 17 37 55 47 87 10 31 21
59 25 60 5 2 8 13 8 25 0 17 6 12 25 -22 16 -28 25 -59 25 -87z m-117 -2 c-36
-71 -62 -89 -143 -97 l-65 -6 53 19 c59 21 128 82 159 139 31 58 28 8 -4 -55z"/>
<path d="M1625 1360 c4 -6 1 -18 -6 -26 -6 -8 -9 -17 -5 -21 3 -3 6 -1 6 6 0
8 5 7 16 -3 8 -9 20 -16 25 -16 11 0 12 57 1 64 -5 3 -6 -9 -4 -26 3 -21 1
-29 -7 -24 -6 4 -11 18 -11 32 0 13 -5 24 -11 24 -5 0 -7 -5 -4 -10z"/>
<path d="M1540 1318 c0 -30 1 -31 15 -12 19 25 19 44 0 44 -10 0 -15 -10 -15
-32z"/>
<path d="M1372 1175 c2 -14 8 -26 13 -26 6 0 11 12 13 26 2 18 -1 25 -13 25
-12 0 -15 -7 -13 -25z"/>
<path d="M1444 1184 c3 -8 2 -12 -4 -9 -6 3 -10 1 -10 -4 0 -6 5 -11 11 -11 5
0 7 -4 4 -10 -3 -5 -1 -10 4 -10 6 0 11 14 11 30 0 17 -5 30 -11 30 -6 0 -8
-7 -5 -16z"/>
<path d="M2020 835 l0 -245 345 0 345 0 0 245 0 245 -345 0 -345 0 0 -245z
m680 0 l0 -235 -335 0 -335 0 0 235 0 235 335 0 335 0 0 -235z"/>
<path d="M2317 1038 c-2 -7 -1 -20 4 -29 11 -22 73 -18 77 5 4 20 -21 21 -38
1 -7 -8 -16 -12 -21 -9 -15 9 -10 32 9 37 13 4 12 5 -5 6 -12 0 -23 -5 -26
-11z"/>
<path d="M2410 1010 c0 -22 1 -23 24 -14 9 3 16 13 16 22 0 13 -3 12 -15 -4
-13 -16 -14 -16 -9 -1 3 9 1 17 -5 17 -6 0 -11 -9 -11 -20z"/>
<path d="M2461 1012 c0 -11 3 -12 6 -4 7 18 23 15 23 -5 0 -14 2 -15 9 -4 6 9
11 10 15 2 9 -14 26 -5 26 13 0 9 -14 14 -40 14 -31 1 -40 -3 -39 -16z"/>
<path d="M2078 1013 c17 -2 47 -2 65 0 17 2 3 4 -33 4 -36 0 -50 -2 -32 -4z"/>
<path d="M2194 945 c-11 -29 3 -44 40 -42 19 2 38 6 42 10 11 10 26 9 19 -2
-3 -6 4 -9 15 -8 16 1 20 8 19 32 -1 29 -1 29 -9 5 -4 -14 -8 -19 -9 -12 -2
19 -62 15 -77 -5 -10 -15 -15 -16 -26 -5 -11 11 -10 16 6 28 18 12 18 14 3 14
-10 0 -20 -7 -23 -15z"/>
<path d="M2440 949 c0 -7 8 -18 18 -26 16 -14 16 -14 0 -9 -10 3 -18 2 -18 -3
0 -4 27 -8 60 -8 52 0 60 2 60 18 0 11 -7 19 -15 19 -18 0 -20 -16 -2 -23 6
-3 -1 -4 -18 -2 -41 4 -43 5 -20 16 18 9 18 9 -3 5 -13 -3 -31 -2 -40 1 -13 6
-13 8 4 14 17 7 17 8 -3 8 -13 1 -23 -4 -23 -10z"/>
<path d="M2643 945 c-20 -22 -16 -45 7 -45 16 0 20 7 20 30 0 33 -8 37 -27 15z"/>
<path d="M2078 923 c17 -2 47 -2 65 0 17 2 3 4 -33 4 -36 0 -50 -2 -32 -4z"/>
<path d="M2194 855 c-11 -28 4 -43 40 -43 29 0 36 4 36 19 0 23 -23 25 -40 4
-7 -8 -16 -12 -21 -9 -15 9 -10 32 9 37 16 4 16 5 -1 6 -10 0 -20 -6 -23 -14z"/>
<path d="M2435 860 c-3 -6 1 -13 9 -16 9 -3 16 -11 16 -16 0 -6 -7 -7 -16 -4
-8 3 -12 2 -9 -4 3 -6 13 -10 21 -10 17 0 19 26 3 36 -8 4 -7 9 2 15 11 7 10
9 -3 9 -9 0 -20 -5 -23 -10z"/>
<path d="M2481 838 c0 -27 2 -30 9 -13 5 11 9 15 9 9 1 -7 8 -14 16 -18 11 -4
15 2 15 22 0 18 -3 23 -9 14 -6 -11 -11 -10 -25 3 -15 15 -16 14 -15 -17z"/>
<path d="M2547 863 c-4 -3 -7 -18 -6 -32 0 -23 1 -24 8 -6 5 11 7 23 4 28 -2
4 1 7 6 7 6 0 11 -11 11 -24 0 -19 5 -23 26 -23 18 0 22 2 13 8 -11 7 -10 9 3
9 9 0 20 -4 23 -10 14 -22 35 -10 35 21 0 26 -2 28 -14 16 -15 -15 -72 -12
-82 4 -6 11 -18 12 -27 2z"/>
<path d="M2320 847 c0 -8 -10 -19 -22 -24 -21 -9 -20 -10 9 -9 19 1 33 6 33
14 0 6 5 12 10 12 6 0 10 -8 10 -17 0 -15 2 -16 10 -3 6 10 10 11 10 3 0 -7 8
-13 18 -13 14 0 15 2 2 10 -10 6 -11 10 -2 10 6 0 12 4 12 9 0 5 -15 9 -34 9
-19 0 -39 3 -45 7 -6 3 -11 0 -11 -8z"/>
<path d="M2078 833 c17 -2 47 -2 65 0 17 2 3 4 -33 4 -36 0 -50 -2 -32 -4z"/>
<path d="M2421 768 c-1 -11 -7 -15 -21 -11 -16 4 -20 0 -20 -21 0 -18 4 -25
11 -20 7 4 48 7 93 7 50 0 73 3 61 8 -17 6 -17 8 -2 8 9 1 17 5 17 10 0 5 -28
8 -62 8 -35 0 -57 -2 -50 -5 16 -5 16 -23 0 -19 -7 1 -16 13 -19 27 -4 14 -7
18 -8 8z"/>
<path d="M2078 743 c17 -2 47 -2 65 0 17 2 3 4 -33 4 -36 0 -50 -2 -32 -4z"/>
<path d="M2310 675 c-21 -26 -4 -45 40 -45 33 0 41 3 38 17 -2 9 -9 18 -17 21
-8 3 -11 0 -7 -6 7 -12 -29 -26 -43 -17 -16 9 -1 34 16 28 11 -4 14 -2 9 5
-10 16 -21 15 -36 -3z"/>
<path d="M2523 640 c0 -37 3 -37 22 0 9 17 11 30 5 30 -5 0 -10 -6 -10 -12 0
-10 -2 -10 -8 0 -6 8 -9 2 -9 -18z"/>
<path d="M2078 653 c17 -2 47 -2 65 0 17 2 3 4 -33 4 -36 0 -50 -2 -32 -4z"/>
<path d="M1376 973 c-12 -13 -6 -53 9 -53 9 0 15 9 15 24 0 26 -12 40 -24 29z"/>
<path d="M1437 973 c-4 -3 -2 -14 3 -24 7 -12 6 -19 -3 -22 -7 -3 -5 -6 6 -6
12 -1 17 7 17 23 0 25 -12 40 -23 29z"/>
<path d="M1372 725 c2 -14 8 -26 13 -26 6 0 11 12 13 26 2 18 -1 25 -13 25
-12 0 -15 -7 -13 -25z"/>
<path d="M1332 603 c-10 -16 -38 -65 -62 -110 -51 -97 -108 -156 -176 -184
-29 -12 -37 -17 -19 -14 46 10 110 51 142 92 17 21 49 74 72 118 46 85 68 115
84 115 6 0 19 -8 30 -17 19 -17 20 -17 8 5 -17 31 -55 29 -79 -5z"/>
<path d="M1790 360 c0 -5 8 -14 18 -20 14 -10 13 -11 -8 -6 -24 5 -24 4 -6 -9
11 -8 23 -15 28 -15 15 0 8 31 -9 37 -15 6 -15 7 3 14 17 7 17 8 -3 8 -13 1
-23 -3 -23 -9z"/>
<path d="M1890 343 c0 -22 2 -25 10 -13 6 10 10 11 10 3 0 -7 4 -13 8 -13 16
0 5 45 -11 48 -13 3 -17 -4 -17 -25z"/>
<path d="M600 220 c7 -4 10 -13 6 -19 -5 -7 -12 -7 -26 1 -15 10 -22 10 -32 0
-9 -9 -7 -12 13 -14 13 0 43 -2 67 -4 38 -3 42 -1 42 20 0 21 -5 23 -41 23
-22 0 -35 -3 -29 -7z"/>
<path d="M860 215 c0 -8 6 -15 13 -15 8 0 7 -4 -3 -10 -13 -8 -12 -10 2 -10
13 0 17 7 16 25 -2 26 -28 36 -28 10z"/>
<path d="M1084 215 c-7 -18 3 -35 22 -35 8 0 14 10 14 25 0 27 -27 35 -36 10z"/>
<path d="M1290 215 c0 -8 6 -15 13 -15 8 0 7 -4 -3 -10 -13 -8 -12 -10 2 -10
13 0 17 7 16 25 -2 26 -28 36 -28 10z"/>
<path d="M1720 215 c0 -8 6 -15 13 -16 6 0 3 -4 -8 -9 -19 -8 -19 -9 2 -9 18
-1 22 4 21 24 -2 26 -28 36 -28 10z"/>
<path d="M1960 205 c0 -20 4 -26 18 -23 9 2 17 12 17 23 0 11 -8 21 -17 23
-14 3 -18 -3 -18 -23z"/>
<path d="M310 70 c0 -27 3 -30 30 -30 27 0 30 3 30 30 0 27 -3 30 -30 30 -27
0 -30 -3 -30 -30z"/>
<path d="M408 65 c-3 -14 -1 -25 3 -25 8 0 10 6 8 28 0 4 10 10 23 14 22 6 22
6 -3 7 -21 1 -28 -5 -31 -24z"/>
<path d="M640 74 c0 -8 5 -12 10 -9 6 3 10 2 10 -4 0 -5 -6 -12 -12 -14 -8 -3
-6 -6 4 -6 13 -1 17 6 16 24 -3 27 -28 35 -28 9z"/>
<path d="M711 76 c-17 -20 -12 -25 25 -32 25 -4 27 -3 13 8 -9 7 -19 19 -21
27 -3 10 -7 10 -17 -3z"/>
<path d="M780 65 c0 -14 5 -25 11 -25 5 0 7 5 4 10 -3 6 1 10 9 10 9 0 16 -4
16 -10 0 -17 18 -11 23 8 4 16 5 16 6 0 1 -11 9 -18 22 -18 14 0 19 5 17 18
-3 12 -12 16 -36 15 -18 -1 -32 2 -32 8 0 5 -9 9 -20 9 -15 0 -20 -7 -20 -25z"/>
<path d="M900 68 c0 -23 4 -26 36 -26 26 0 34 4 32 16 -2 8 -10 17 -18 19 -13
4 -13 3 0 -6 12 -9 13 -11 1 -11 -8 0 -23 7 -33 17 -17 15 -18 15 -18 -9z"/>
<path d="M980 65 c0 -20 4 -24 25 -23 20 2 25 8 24 28 0 14 -3 19 -6 13 -3 -9
-10 -10 -24 -3 -16 9 -19 7 -19 -15z"/>
<path d="M1177 79 c-35 -20 -19 -37 33 -37 40 -1 50 2 51 16 0 14 2 13 10 -3
9 -20 9 -20 6 0 -2 16 -10 20 -37 20 -19 0 -37 3 -40 7 -3 3 -13 2 -23 -3z"/>
<path d="M1330 80 c11 -7 11 -10 2 -10 -7 0 -10 -4 -7 -10 3 -6 -1 -7 -9 -4
-9 3 -13 10 -10 15 3 5 1 9 -5 9 -5 0 -9 -9 -8 -20 2 -28 67 -29 67 -1 0 10
-7 22 -16 25 -24 9 -31 7 -14 -4z"/>
<path d="M1428 84 c-3 -3 -3 -15 0 -27 6 -22 6 -21 13 3 7 24 7 24 8 3 1 -19
7 -23 31 -23 22 0 30 5 31 18 0 14 2 14 9 -3 8 -19 9 -19 9 2 1 18 -4 22 -24
21 -14 -1 -25 -8 -25 -15 0 -20 -17 -15 -23 7 -5 19 -18 26 -29 14z"/>
<path d="M1593 83 c-19 -7 -16 -43 3 -43 11 0 15 6 11 20 -3 10 0 21 7 24 6 2
7 4 1 4 -5 0 -16 -2 -22 -5z"/>
<path d="M1806 83 c-4 -4 -15 -8 -24 -8 -9 0 -18 -8 -20 -17 -2 -13 3 -18 17
-18 13 0 21 7 22 18 0 14 2 14 8 -3 7 -17 8 -17 13 8 5 26 -1 34 -16 20z"/>
<path d="M1960 70 c0 -20 5 -26 26 -28 19 -1 25 2 22 16 -2 9 -10 17 -18 17
-8 0 -18 5 -22 10 -4 6 -8 -1 -8 -15z"/>
<path d="M2200 81 c0 -5 -8 -8 -17 -7 -10 0 -19 -7 -21 -16 -3 -14 3 -17 22
-16 20 2 26 8 26 25 0 13 -2 23 -5 23 -3 0 -5 -4 -5 -9z"/>
<path d="M2390 70 c0 -11 -7 -20 -15 -20 -18 0 -20 16 -2 23 9 4 9 6 -1 6 -7
1 -15 -6 -18 -14 -4 -8 -10 -12 -15 -9 -5 3 -6 10 -3 16 4 6 1 9 -6 6 -7 -2
-14 -12 -16 -21 -2 -14 6 -17 42 -17 35 0 44 4 44 18 1 15 2 15 13 2 7 -9 31
-16 55 -17 39 -2 42 0 42 22 0 30 -4 31 -29 4 -14 -15 -21 -17 -26 -8 -6 8 -4
10 5 4 9 -6 11 -4 6 4 -5 7 -15 10 -23 7 -8 -3 -23 -1 -34 4 -16 9 -19 7 -19
-10z"/>
<path d="M2680 68 c0 -19 5 -28 16 -28 8 0 13 4 9 9 -3 5 -1 12 4 15 5 4 12
-1 14 -9 4 -11 4 -10 3 2 -1 10 -8 18 -16 18 -8 0 -18 5 -22 10 -4 6 -8 -2 -8
-17z"/>
<path d="M2750 64 c0 -22 4 -25 28 -22 52 6 58 44 7 46 -31 1 -35 -1 -35 -24z"/>
<path d="M2832 70 c-17 -28 -16 -30 23 -30 19 0 35 5 35 11 0 6 -7 9 -15 5 -8
-3 -14 -2 -14 2 6 35 -10 42 -29 12z"/>
<path d="M464 65 c-8 -21 3 -48 19 -42 6 2 10 13 9 23 -3 15 -1 17 9 7 20 -20
39 -15 38 10 -1 16 -2 18 -6 5 -4 -16 -6 -16 -19 -3 -20 19 -43 19 -50 0z"/>
<path d="M577 66 c-7 -16 1 -26 20 -26 7 0 13 9 13 20 0 23 -25 27 -33 6z"/>
<path d="M1080 60 c0 -11 4 -20 10 -20 5 0 6 7 3 17 -5 11 -3 14 6 9 7 -5 11
-17 8 -27 -3 -11 -2 -19 2 -19 10 0 33 51 26 58 -3 3 -5 -1 -5 -8 0 -11 -3
-11 -12 -2 -18 18 -38 14 -38 -8z"/>
<path d="M1391 72 c-1 -7 -6 -10 -13 -6 -7 5 -9 2 -5 -8 3 -9 0 -21 -6 -27 -8
-8 -8 -11 1 -11 15 0 35 37 28 53 -3 9 -5 8 -5 -1z"/>
<path d="M1625 72 c-15 -15 -2 -32 25 -32 22 0 30 5 31 18 0 15 2 14 10 -3 9
-20 9 -20 6 0 -2 14 -10 20 -34 21 -18 1 -35 -1 -38 -4z"/>
<path d="M2223 61 c1 -15 9 -19 34 -19 26 0 33 4 33 19 0 10 -7 19 -15 19 -8
0 -15 -4 -15 -10 0 -5 -7 -10 -16 -10 -8 0 -12 5 -9 10 3 6 2 10 -4 10 -5 0
-9 -9 -8 -19z"/>
<path d="M2585 72 c-11 -11 -4 -32 10 -32 8 0 15 4 15 8 0 5 10 13 22 19 20 9
19 10 -10 10 -18 0 -34 -3 -37 -5z"/>
</g>
</svg>
