<?xml version="1.0" standalone="no"?>
<!DOCTYPE svg PUBLIC "-//W3C//DTD SVG 20010904//EN"
 "http://www.w3.org/TR/2001/REC-SVG-20010904/DTD/svg10.dtd">
<svg version="1.0" xmlns="http://www.w3.org/2000/svg"
 width="300.000000pt" height="300.000000pt" viewBox="0 0 300.000000 300.000000"
 preserveAspectRatio="xMidYMid meet">
<metadata>
Created by potrace 1.10, written by Peter Selinger 2001-2011
</metadata>
<g transform="translate(0.000000,300.000000) scale(0.100000,-0.100000)"
fill="#000000" stroke="none">
<path d="M2994 2830 c0 -96 2 -136 3 -87 2 48 2 126 0 175 -1 48 -3 8 -3 -88z"/>
<path d="M1423 2935 c-40 -8 -78 -17 -84 -21 -33 -20 -82 -22 -112 -3 -61 36
-161 34 -212 -6 -17 -12 -14 -12 20 1 57 23 233 8 193 -17 -10 -7 -10 -9 2 -9
8 0 0 -10 -18 -21 l-33 -22 -23 22 c-19 18 -34 21 -106 21 -46 0 -80 -3 -77
-6 3 -4 0 -16 -8 -28 -8 -11 -15 -27 -15 -36 0 -12 2 -12 9 -1 5 7 11 9 13 5
3 -5 4 -4 2 2 -4 19 15 39 38 40 13 1 45 5 72 9 36 6 47 5 42 -3 -5 -8 0 -12
13 -12 11 0 22 -4 25 -9 5 -7 37 -8 76 -1 3 0 -2 5 -10 10 -11 7 -1 10 35 11
28 1 54 1 58 0 5 -1 6 3 3 8 -3 5 -16 7 -29 5 -18 -4 -18 -3 3 5 74 26 135 41
138 33 2 -6 18 -6 40 -1 28 6 47 3 79 -11 24 -10 43 -24 43 -29 0 -6 6 -11 14
-11 8 0 24 -8 36 -18 20 -16 21 -20 7 -25 -9 -3 -24 1 -34 11 -15 16 -16 16
-11 0 7 -17 -17 -34 -27 -18 -3 4 0 10 7 12 7 3 5 7 -6 11 -9 4 -15 3 -11 -2
3 -5 1 -13 -5 -16 -8 -5 -7 -11 1 -21 12 -15 44 -20 35 -6 -3 5 17 10 45 11
28 1 48 -2 46 -6 -3 -5 3 -24 14 -43 14 -28 18 -31 19 -14 0 12 -11 38 -25 58
-14 21 -21 35 -16 32 5 -4 11 -2 13 3 4 13 79 -23 105 -51 13 -13 29 -42 37
-63 8 -22 15 -32 15 -22 1 10 -6 34 -14 54 -12 29 -13 38 -3 45 10 6 9 8 -3 8
-9 0 -27 9 -40 21 l-24 20 25 -7 c14 -4 35 -14 48 -22 17 -11 20 -18 11 -28
-11 -13 -5 -18 15 -15 5 1 6 -5 2 -14 -3 -9 -2 -14 3 -11 13 9 33 -39 35 -82
1 -42 10 -47 19 -12 3 11 1 23 -4 26 -6 3 -5 11 2 20 8 10 8 14 1 14 -6 0 -9
7 -6 15 4 8 1 15 -6 15 -15 0 -50 42 -43 53 3 4 12 2 20 -5 9 -7 28 -11 43
-10 18 2 38 -6 59 -23 17 -15 31 -22 31 -16 0 19 -91 71 -108 62 -10 -6 -28 1
-56 19 -45 30 -96 46 -96 31 0 -10 -78 11 -113 30 -10 5 -23 7 -29 3 -8 -5 -9
-1 -5 10 4 9 3 15 -2 11 -14 -8 -42 6 -35 17 3 5 12 7 20 4 8 -3 14 -2 14 3 0
18 -15 20 -37 6 -23 -16 -73 -11 -73 6 0 5 -3 9 -7 8 -5 -1 -41 -7 -80 -14z"/>
<path d="M1581 2873 c-1 -7 -11 -13 -23 -13 -13 0 -30 -5 -38 -11 -11 -8 -5
-9 25 -4 46 8 49 9 42 27 -4 10 -6 10 -6 1z"/>
<path d="M1429 2850 c45 -28 55 -40 80 -86 12 -21 21 -32 21 -24 0 8 -7 24
-15 34 -18 24 -19 40 -2 30 7 -5 7 -1 -2 10 -16 19 -53 40 -91 51 -20 5 -19 2
9 -15z"/>
<path d="M1310 2850 l-55 -7 47 -1 c62 -3 118 -29 118 -56 -1 -21 -1 -21 -18
-1 -9 11 -25 21 -36 22 -14 1 -11 -5 14 -28 30 -28 33 -29 47 -12 10 12 16 14
19 6 3 -7 11 -10 17 -7 12 4 18 -21 20 -88 1 -45 12 -41 21 7 5 23 2 44 -9 65
-16 31 -71 77 -86 73 -5 -2 -9 2 -9 7 0 6 -10 10 -22 10 -19 0 -20 2 -8 10 8
5 11 9 5 8 -5 -1 -35 -4 -65 -8z"/>
<path d="M1110 2824 c-14 -7 -37 -14 -52 -14 -15 0 -39 -5 -55 -11 -15 -6 -45
-11 -66 -11 -30 1 -37 -2 -33 -14 3 -9 1 -12 -4 -9 -6 3 -10 1 -10 -4 0 -15
11 -14 46 3 16 8 45 17 64 20 28 5 31 4 13 -4 -13 -5 -23 -14 -23 -19 0 -17
-71 -25 -104 -12 -28 10 -33 9 -53 -14 -25 -28 -32 -102 -12 -122 5 -5 7 -21
4 -34 -8 -32 -105 -138 -111 -122 -6 13 -34 6 -34 -8 0 -4 7 -6 15 -3 8 4 15
1 15 -6 0 -18 42 -7 54 14 6 11 23 33 39 49 28 32 57 82 57 102 0 17 45 56 55
48 4 -5 5 -2 1 5 -9 15 -44 -1 -53 -24 -4 -11 -9 -12 -19 -3 -26 22 -12 119
18 119 6 0 5 -6 -3 -17 -8 -9 -9 -14 -4 -11 6 4 26 3 45 -2 19 -4 27 -8 18 -9
-10 -1 -18 -6 -18 -11 0 -12 35 3 45 19 3 5 22 15 43 22 20 7 66 32 102 56 62
41 73 57 20 27z"/>
<path d="M1984 2821 c4 -6 16 -11 27 -11 27 0 59 -35 59 -67 0 -14 3 -24 6
-20 4 3 3 22 0 42 -7 36 -13 41 -75 60 -16 5 -21 4 -17 -4z"/>
<path d="M1154 2807 c-17 -7 -44 -22 -60 -34 -25 -19 -26 -21 -6 -16 12 3 22
10 22 15 0 5 10 6 23 3 16 -5 18 -4 8 4 -12 8 -10 11 10 16 13 3 36 7 52 9 37
4 42 12 9 13 -15 1 -41 -4 -58 -10z"/>
<path d="M1918 2764 c-4 -3 2 -14 13 -25 10 -10 19 -30 19 -43 0 -33 13 -39
33 -16 14 17 19 18 42 6 38 -20 55 -48 57 -97 1 -37 -3 -46 -32 -71 -23 -19
-29 -28 -18 -28 9 0 19 6 21 13 4 7 8 3 12 -10 4 -13 12 -23 17 -23 5 0 6 5 3
11 -10 15 15 69 31 69 7 0 11 -6 8 -14 -3 -8 0 -17 7 -22 7 -4 10 -3 5 4 -3 6
-2 13 4 17 5 3 10 1 10 -4 0 -6 11 -10 24 -9 27 2 29 16 6 36 -8 8 2 4 23 -7
22 -12 37 -16 35 -9 -7 21 -53 48 -85 51 -27 2 -33 7 -42 38 -18 60 -82 99
-119 73 -20 -14 -23 -12 -42 26 -21 42 -23 44 -32 34z"/>
<path d="M1629 2723 c21 -30 21 -34 7 -55 -24 -34 -19 -44 9 -18 28 26 31 42
12 62 -8 7 -12 19 -11 26 1 7 0 8 -3 2 -3 -7 -10 -7 -21 2 -9 8 -7 -1 7 -19z"/>
<path d="M1745 2685 c0 -29 3 -51 8 -48 9 5 9 74 -1 90 -4 6 -7 -13 -7 -42z"/>
<path d="M1535 2720 c-3 -6 -4 -19 0 -30 8 -24 -19 -67 -54 -85 -37 -19 -111
-89 -111 -106 0 -8 7 -4 16 10 9 12 36 31 61 42 24 10 42 23 38 28 -3 5 3 12
13 16 11 3 24 15 30 28 10 21 11 21 11 2 2 -39 20 7 19 48 0 28 -3 35 -10 26
-7 -10 -8 -8 -5 9 5 23 2 28 -8 12z"/>
<path d="M1043 2687 c-13 -13 -23 -29 -23 -37 0 -9 7 -7 21 8 11 12 25 19 31
16 7 -4 8 -2 4 4 -4 7 -2 12 3 12 6 0 11 5 11 10 0 17 -24 10 -47 -13z"/>
<path d="M1696 2682 c-10 -30 -50 -62 -81 -64 -17 -2 -38 -11 -48 -21 -17 -17
-16 -17 10 -11 59 14 133 70 133 100 0 20 -8 17 -14 -4z"/>
<path d="M1247 2634 c6 -68 11 -77 12 -24 0 25 -3 51 -8 59 -5 8 -7 -5 -4 -35z"/>
<path d="M1425 2643 c-4 -21 -14 -47 -23 -58 -17 -20 -17 -20 7 0 13 11 32 37
42 58 19 36 19 37 0 37 -14 0 -21 -10 -26 -37z"/>
<path d="M1993 2673 c-9 -3 -11 -18 -6 -49 5 -35 2 -45 -11 -50 -10 -4 -15
-12 -12 -20 3 -7 0 -14 -6 -16 -20 -7 0 -38 24 -38 21 0 21 0 2 15 -19 14 -18
15 9 40 15 14 27 32 27 40 0 8 5 15 10 15 6 0 10 8 10 18 0 13 -2 14 -9 3 -7
-11 -11 -8 -17 10 -4 13 -7 27 -6 32 1 4 1 7 0 6 -2 0 -8 -3 -15 -6z"/>
<path d="M1880 2645 c0 -9 -4 -14 -9 -11 -5 3 -8 -6 -8 -20 0 -30 -30 -65 -49
-57 -7 3 -21 -3 -30 -12 -9 -9 -23 -14 -30 -11 -8 3 -11 0 -7 -9 4 -12 10 -11
33 5 35 25 48 26 27 2 -15 -16 -15 -19 -2 -19 8 0 15 4 15 9 0 4 6 7 13 6 6
-2 11 5 9 14 -2 13 2 16 15 12 12 -4 14 -3 5 3 -9 7 -8 14 7 29 24 26 35 61
21 69 -5 3 -10 -1 -10 -10z"/>
<path d="M1231 2635 c-1 -11 -10 -35 -21 -53 -20 -33 -20 -33 0 -22 22 12 34
48 27 77 -4 16 -5 16 -6 -2z"/>
<path d="M1684 2623 c-49 -46 -63 -70 -22 -38 21 17 43 30 50 30 6 0 12 8 14
18 3 24 -8 21 -42 -10z"/>
<path d="M1083 2625 c8 -6 17 -22 19 -35 3 -21 5 -19 9 11 4 32 2 35 -19 35
-20 0 -21 -2 -9 -11z"/>
<path d="M2993 2580 c0 -36 2 -50 4 -32 2 17 2 47 0 65 -2 17 -4 3 -4 -33z"/>
<path d="M1275 2590 c-10 -46 -42 -78 -116 -116 -67 -33 -85 -51 -54 -51 8 0
15 6 15 13 0 12 22 24 43 24 7 0 6 -4 -3 -10 -10 -7 -11 -10 -2 -10 7 0 15 7
19 16 3 8 12 13 19 10 8 -3 13 -1 11 4 -1 6 21 31 48 56 28 25 45 43 39 40 -6
-3 -9 6 -6 25 6 38 -4 38 -13 -1z"/>
<path d="M1735 2570 c-16 -11 -35 -18 -41 -16 -6 2 -11 -2 -11 -9 0 -18 49 0
73 26 22 24 17 24 -21 -1z"/>
<path d="M1894 2573 c-3 -10 -10 -26 -15 -36 -8 -15 -7 -18 7 -15 11 2 17 14
19 36 3 35 -2 42 -11 15z"/>
<path d="M779 2565 c-1 -3 -2 -9 -3 -13 0 -5 -14 -21 -31 -35 -16 -15 -25 -27
-19 -27 7 0 26 14 44 30 18 17 27 30 20 30 -6 0 -8 5 -5 10 3 6 4 10 1 10 -3
0 -7 -2 -7 -5z"/>
<path d="M1531 2551 c-14 -14 -21 -16 -25 -8 -3 9 -8 8 -18 -3 -7 -9 -21 -14
-31 -12 -10 2 -20 -4 -24 -15 -4 -10 -11 -21 -17 -25 -7 -5 -7 -8 2 -8 13 0
47 17 72 37 8 6 19 12 23 12 4 0 22 9 40 20 22 14 27 21 15 21 -10 0 -27 -9
-37 -19z"/>
<path d="M1654 2559 c-3 -6 -14 -9 -24 -6 -24 6 -66 -31 -51 -46 6 -6 15 -4
26 7 9 9 27 19 41 22 13 3 24 12 24 20 0 17 -6 18 -16 3z"/>
<path d="M1170 2519 c-24 -16 -37 -29 -29 -29 8 0 30 13 49 30 44 37 38 37
-20 -1z"/>
<path d="M1300 2504 c-25 -18 -54 -40 -65 -49 -17 -12 -18 -16 -5 -25 8 -5 20
-10 25 -10 6 0 4 4 -4 9 -9 6 -10 11 -2 15 6 4 11 5 11 1 0 -3 15 2 33 12 17
9 35 16 40 15 4 -1 7 5 7 13 0 8 5 15 10 15 6 0 10 5 10 12 0 7 -6 6 -17 -4
-36 -30 -47 -30 -19 0 37 40 33 39 -24 -4z"/>
<path d="M1648 2516 c-20 -8 -21 -10 -5 -13 27 -7 87 6 87 18 0 11 -50 9 -82
-5z"/>
<path d="M2203 2504 c-3 -8 -12 -13 -20 -10 -8 4 -17 -4 -23 -18 -5 -14 -23
-29 -44 -37 -40 -15 -56 -39 -25 -39 10 0 39 18 63 40 24 22 46 40 50 40 12 0
6 -41 -10 -65 -14 -22 -24 -25 -74 -25 -42 0 -59 -4 -64 -15 -6 -17 9 -21 19
-5 9 15 45 12 45 -4 0 -8 -12 -16 -27 -18 -14 -2 -28 -10 -30 -18 -3 -10 -2
-11 4 -3 5 6 15 11 23 11 38 -2 83 3 77 8 -4 4 7 22 23 41 17 18 30 42 30 53
0 29 17 33 24 6 9 -35 -10 -78 -44 -101 -25 -17 -27 -21 -12 -26 9 -4 22 -3
27 1 6 4 28 11 50 15 22 4 45 11 52 17 9 7 11 -1 8 -34 -3 -46 -32 -128 -45
-128 -13 0 -22 52 -11 63 6 6 10 27 10 47 l-2 35 -6 -39 c-3 -22 -12 -41 -18
-44 -15 -4 -17 24 -3 33 6 3 10 13 10 20 0 18 -25 9 -57 -19 -30 -25 -29 -36
2 -36 22 0 24 -3 16 -18 -7 -13 -6 -23 1 -30 7 -7 8 -12 3 -12 -6 0 -3 -5 5
-11 13 -8 13 -9 -2 -7 -9 2 -24 -6 -32 -17 -19 -26 -31 -14 -16 17 11 22 10
22 -4 4 -20 -25 -20 -35 -1 -42 25 -10 67 6 72 26 4 13 14 20 30 20 58 0 87
173 39 242 -13 19 -28 48 -33 63 -5 16 -15 31 -22 33 -10 3 -10 0 -2 -16 13
-25 14 -32 3 -32 -5 0 -14 11 -20 25 -13 28 -30 32 -39 9z m117 -116 c0 -10
-4 -17 -9 -13 -5 3 -12 1 -16 -5 -12 -19 -26 -11 -16 9 6 10 7 21 4 25 -3 3
-1 6 6 6 7 0 9 5 5 13 -5 8 -2 8 9 -2 9 -7 17 -22 17 -33z"/>
<path d="M1499 2500 c-1 -3 -1 -8 0 -12 0 -4 -5 -5 -12 -3 -6 3 -25 -6 -40
-19 -28 -24 -28 -25 -5 -22 30 3 94 31 102 45 5 8 12 7 22 -4 9 -8 20 -12 26
-9 14 9 -36 32 -66 30 -14 0 -27 -3 -27 -6z"/>
<path d="M1673 2482 c-13 -2 -23 -7 -23 -12 0 -5 7 -6 17 -3 11 4 14 3 9 -5
-5 -8 0 -12 13 -12 11 0 23 5 26 11 5 6 12 4 22 -8 8 -10 12 -12 8 -5 -4 7 0
12 9 12 9 0 16 8 16 17 0 12 -3 14 -11 6 -6 -6 -22 -8 -38 -4 -14 4 -36 5 -48
3z"/>
<path d="M1548 2443 c12 -2 22 -8 22 -12 0 -4 -10 -13 -22 -18 -22 -10 -22
-11 4 -9 14 0 24 5 21 9 -3 5 8 8 23 7 69 -5 46 15 -26 23 -25 2 -35 2 -22 0z"/>
<path d="M671 2344 c2 -55 8 -89 16 -96 10 -8 13 -5 13 15 0 14 -4 28 -8 31
-5 3 -7 24 -6 48 2 24 3 51 3 60 1 12 6 15 19 11 9 -3 14 -3 11 1 -4 4 -16 9
-28 11 -22 4 -22 2 -20 -81z"/>
<path d="M1664 2420 c-12 -5 -25 -13 -29 -19 -3 -6 -16 -11 -28 -12 -15 0 -17
-2 -7 -6 8 -3 23 -13 33 -22 17 -15 18 -14 12 12 -8 31 1 34 34 11 25 -18 46
-8 31 16 -7 10 -10 11 -10 3 0 -7 -5 -13 -10 -13 -7 0 -7 6 0 20 12 22 7 23
-26 10z"/>
<path d="M2050 2420 c0 -6 -11 -8 -25 -4 -15 4 -25 2 -25 -5 0 -6 14 -11 30
-11 20 0 30 5 30 15 0 8 -2 15 -5 15 -3 0 -5 -5 -5 -10z"/>
<path d="M599 2383 c-23 -21 -48 -52 -55 -68 -13 -32 -8 -85 8 -85 6 0 8 7 4
15 -3 8 -1 15 3 15 5 0 12 -6 14 -12 4 -10 6 -9 6 1 1 11 4 11 16 1 8 -7 15
-8 15 -2 0 5 -7 15 -15 22 -25 20 -17 58 18 93 29 29 45 57 32 57 -3 0 -24
-17 -46 -37z"/>
<path d="M1774 2393 c5 -13 -5 -17 -34 -13 -10 1 -9 -3 5 -14 11 -8 25 -15 30
-16 6 0 4 4 -4 9 -10 7 -5 11 18 16 42 9 47 22 10 27 -22 3 -29 1 -25 -9z"/>
<path d="M1690 2350 c0 -5 5 -10 11 -10 7 0 18 -8 26 -17 8 -10 11 -12 7 -4
-4 9 -2 12 7 9 8 -3 13 -10 12 -15 -1 -5 7 -14 18 -21 11 -7 19 -8 19 -2 0 5
-4 10 -10 10 -5 0 -10 6 -10 14 0 8 -14 22 -32 30 -36 19 -48 20 -48 6z"/>
<path d="M1922 2348 c6 -16 66 -49 72 -39 3 4 -13 17 -35 29 -23 12 -39 17
-37 10z"/>
<path d="M2994 2275 c0 -49 1 -71 3 -48 2 23 2 64 0 90 -2 26 -3 8 -3 -42z"/>
<path d="M2013 2301 l-22 -19 22 -18 c12 -10 16 -12 10 -4 -23 25 -14 30 22
13 27 -13 38 -14 47 -5 9 9 6 12 -12 12 -32 0 -54 15 -46 29 10 15 5 13 -21
-8z"/>
<path d="M505 2300 c-11 -18 -15 -101 -5 -95 6 4 10 -8 10 -28 0 -19 7 -40 15
-47 18 -15 20 1 3 18 -10 10 -10 15 2 22 10 7 11 10 2 10 -8 0 -10 8 -6 26 5
18 3 25 -3 21 -15 -9 -23 31 -13 59 10 24 6 32 -5 14z"/>
<path d="M1850 2234 c0 -9 5 -12 12 -8 8 5 9 2 5 -9 -3 -9 -2 -19 4 -23 6 -3
14 -16 19 -28 l9 -21 0 22 c1 12 -3 25 -9 28 -5 3 -10 14 -10 23 1 16 1 16 11
0 5 -10 14 -18 20 -18 5 0 4 9 -3 20 -7 11 -19 18 -25 15 -7 -2 -13 0 -13 5 0
6 -4 10 -10 10 -5 0 -10 -7 -10 -16z"/>
<path d="M1977 2222 c1 -8 3 -17 3 -22 0 -4 11 -7 25 -7 20 0 23 2 14 13 -6 8
-17 14 -24 14 -8 0 -15 3 -18 8 -2 4 -2 1 0 -6z"/>
<path d="M2050 2232 c0 -4 10 -13 21 -21 18 -11 23 -11 30 1 7 10 9 10 9 1 0
-7 7 -13 16 -13 9 0 12 -5 8 -12 -5 -7 -3 -8 6 -3 10 6 9 11 -6 22 -32 25 -57
36 -50 24 4 -6 2 -11 -3 -11 -6 0 -11 5 -11 10 0 6 -4 10 -10 10 -5 0 -10 -3
-10 -8z"/>
<path d="M1940 2203 c10 -13 17 -30 14 -37 -3 -7 2 -13 11 -13 19 0 19 3 -5
37 -11 15 -17 29 -15 32 3 3 -1 5 -9 5 -12 0 -11 -5 4 -24z"/>
<path d="M1850 2172 c0 -11 7 -25 15 -32 8 -7 13 -16 10 -20 -2 -4 11 -21 29
-39 21 -21 36 -29 40 -22 4 6 1 11 -7 11 -8 0 -21 8 -28 17 -12 15 -12 16 4
10 14 -5 17 -1 15 22 -2 22 -6 28 -21 26 -25 -5 -52 6 -37 15 8 5 6 11 -5 20
-13 10 -15 9 -15 -8z"/>
<path d="M2010 2163 c20 -8 40 -29 35 -37 -3 -3 0 -2 5 2 19 15 -1 42 -29 41
-15 0 -20 -3 -11 -6z"/>
<path d="M2280 2133 c0 -9 -3 -13 -6 -10 -4 4 -15 -3 -25 -14 -10 -12 -35 -23
-60 -26 -44 -6 -35 -22 11 -19 33 2 43 -14 22 -39 -16 -19 -16 -19 1 -6 20 16
20 14 6 -27 -9 -27 -8 -33 12 -53 22 -22 22 -23 3 -29 -14 -6 -10 -8 18 -11
20 -3 45 -2 55 2 14 6 14 8 2 8 -8 1 -24 7 -34 15 -18 13 -18 14 -1 32 18 17
18 18 0 25 -11 3 -25 2 -31 -3 -9 -7 -13 -7 -13 1 0 6 7 14 15 18 13 4 14 15
9 48 -5 37 -3 45 15 54 21 12 30 51 11 51 -5 0 -10 -7 -10 -17z"/>
<path d="M480 2133 c0 -7 8 -17 18 -22 16 -10 16 -10 0 -11 -11 0 -18 -8 -18
-19 0 -10 -7 -24 -15 -31 -20 -16 -19 -89 1 -118 8 -12 25 -27 36 -33 l21 -12
-21 28 c-23 30 -31 58 -10 37 7 -7 15 -12 20 -12 4 0 -4 12 -18 26 -19 18 -24
31 -19 47 4 12 9 34 12 50 6 32 26 34 88 12 46 -16 85 -19 85 -6 0 10 -100 43
-138 45 -13 1 -27 8 -32 16 -6 10 -10 10 -10 3z"/>
<path d="M1965 2060 c5 -14 8 -33 7 -44 -1 -25 8 -14 13 17 3 15 -1 30 -11 38
-15 12 -16 11 -9 -11z"/>
<path d="M1877 2020 c30 -32 40 -49 34 -59 -6 -8 -5 -25 1 -40 5 -14 5 -27 1
-28 -5 -2 -7 -19 -5 -39 3 -27 7 -33 14 -23 7 10 8 6 4 -13 -4 -16 -2 -28 4
-28 13 0 13 43 -1 57 -7 7 -7 27 -1 64 6 30 7 59 4 65 -4 6 -27 28 -52 49
l-45 39 42 -44z"/>
<path d="M2008 2021 c7 -4 15 -23 17 -41 3 -18 7 -35 11 -39 4 -3 4 6 2 22 -3
15 -1 27 5 27 6 0 2 9 -8 20 -10 11 -23 20 -29 20 -6 0 -5 -4 2 -9z"/>
<path d="M590 1989 c-6 -11 -9 -28 -7 -37 3 -15 5 -14 12 3 4 11 15 28 23 38
14 15 13 17 -1 17 -9 0 -21 -9 -27 -21z"/>
<path d="M1807 1983 c-13 -12 -7 -31 9 -29 9 0 19 -5 22 -13 3 -8 0 -11 -7 -7
-21 13 -11 -15 13 -37 13 -12 27 -36 30 -54 4 -17 14 -37 22 -44 12 -10 13 -6
8 22 -7 42 -44 129 -55 129 -5 0 -6 7 -2 16 5 13 2 15 -17 9 -15 -5 -20 -4
-16 4 8 12 3 15 -7 4z"/>
<path d="M1977 1925 c-4 -22 -6 -58 -6 -80 l1 -40 9 32 c7 22 14 31 24 27 10
-4 15 0 14 12 -1 24 -16 72 -19 59 -1 -5 -5 -1 -9 10 -6 15 -9 11 -14 -20z"/>
<path d="M290 1928 c1 -19 25 -48 41 -48 9 1 6 7 -8 19 -12 10 -20 21 -17 24
3 3 1 8 -5 12 -6 3 -11 0 -11 -7z"/>
<path d="M2065 1930 c-3 -5 -2 -10 4 -10 5 0 8 -11 6 -25 -2 -19 1 -23 10 -15
13 11 9 46 -6 55 -4 3 -10 1 -14 -5z"/>
<path d="M1261 1910 c0 -14 4 -34 8 -44 7 -17 8 -18 14 -3 3 9 2 19 -4 22 -5
4 -7 10 -5 14 3 4 1 13 -5 21 -6 11 -9 9 -8 -10z"/>
<path d="M2142 1904 c2 -14 6 -20 11 -15 5 5 16 7 23 4 25 -9 15 12 -11 23
-23 11 -24 10 -23 -12z"/>
<path d="M1355 1892 c-1 -2 0 -12 2 -23 5 -16 8 -17 14 -7 5 7 14 13 20 13 7
0 14 5 16 11 3 10 -42 15 -52 6z"/>
<path d="M1073 1878 c2 -7 12 -12 21 -12 14 2 20 -8 17 -28 0 -5 6 -8 14 -8
21 0 19 9 -11 36 -27 26 -48 32 -41 12z"/>
<path d="M1421 1869 l-23 -19 43 -1 c24 -1 33 -3 19 -6 -14 -2 -64 -11 -113
-19 -77 -15 -85 -18 -70 -30 17 -12 16 -13 -7 -14 -15 0 -31 -5 -37 -11 -6 -6
-21 -16 -33 -23 -16 -7 -31 -36 -51 -91 -15 -43 -35 -85 -44 -92 -23 -16 -105
-33 -163 -33 -66 0 -122 17 -156 48 -16 15 -25 21 -21 13 5 -9 4 -12 -3 -7
-19 11 -22 59 -9 136 12 73 14 75 47 87 26 9 29 12 13 12 -36 1 -73 -17 -73
-37 0 -10 -5 -23 -10 -28 -8 -8 -8 -19 0 -38 13 -35 13 -56 0 -36 -16 25 -12
-57 4 -89 40 -76 244 -103 358 -46 40 19 39 20 24 -11 -8 -14 -11 -35 -8 -46
4 -17 8 -13 18 21 7 24 22 50 33 58 17 11 21 25 21 64 0 62 13 89 44 89 32 0
40 -13 66 -100 18 -59 30 -82 61 -110 21 -19 39 -40 39 -47 0 -6 12 -16 28
-22 15 -7 47 -38 72 -71 25 -32 48 -59 53 -59 8 -1 -19 51 -50 96 -13 17 -23
33 -23 36 0 3 26 8 58 12 57 7 92 26 92 52 0 9 -6 7 -20 -7 -11 -11 -28 -20
-37 -21 -10 0 -46 -2 -80 -5 -61 -5 -63 -4 -103 33 -22 21 -40 41 -40 44 0 3
24 -2 53 -12 61 -21 108 -23 212 -8 98 15 129 39 146 113 11 53 8 86 -9 86 -4
0 -8 -15 -9 -34 -2 -58 -22 -105 -53 -121 -51 -26 -163 -39 -236 -27 -86 14
-106 29 -132 97 -29 75 -29 120 1 139 48 32 138 47 262 44 66 -1 126 1 133 6
6 4 12 2 12 -3 0 -6 -5 -11 -12 -11 -6 0 -4 -7 5 -18 10 -10 17 -28 17 -39 0
-21 18 -24 53 -9 18 9 19 36 2 48 -6 4 -2 8 8 8 9 0 17 -4 17 -10 0 -5 14 -10
30 -10 43 0 37 13 -15 31 -42 16 -45 15 -50 -2 -4 -11 -14 -19 -23 -19 -15 1
-15 2 2 15 11 8 17 17 14 20 -3 3 -39 9 -79 12 -56 5 -77 11 -87 25 -14 19
-38 15 -26 -4 4 -6 1 -8 -7 -6 -8 3 -13 9 -12 14 1 5 -25 9 -56 10 -42 1 -63
-4 -80 -17z"/>
<path d="M2267 1847 c-18 -18 -18 -19 0 -32 10 -7 21 -11 25 -9 5 3 8 0 8 -5
0 -6 5 -11 10 -11 6 0 10 9 10 20 0 12 -5 17 -14 14 -8 -3 -17 -1 -21 5 -3 6
0 9 8 5 22 -8 29 10 9 22 -13 8 -22 6 -35 -9z"/>
<path d="M1165 1820 c10 -11 14 -20 10 -20 -5 0 -4 -5 2 -11 7 -7 19 -9 28 -5
14 5 12 10 -11 31 -32 30 -55 34 -29 5z"/>
<path d="M1643 1813 c9 -2 17 -11 17 -19 0 -8 7 -14 15 -14 8 0 15 4 15 8 0
15 -24 32 -44 31 -17 -1 -18 -2 -3 -6z"/>
<path d="M1398 1787 c-21 -6 -38 -14 -38 -19 0 -11 38 -10 45 2 3 6 12 10 18
10 7 0 0 -11 -15 -25 -16 -13 -23 -27 -18 -30 6 -3 10 -1 10 6 0 7 8 9 21 6
14 -4 19 -2 16 7 -3 8 6 18 19 25 36 16 42 14 37 -12 -9 -48 68 -63 85 -16 8
20 8 20 36 -2 33 -26 58 -13 27 15 -46 42 -158 57 -243 33z"/>
<path d="M782 1770 c-16 -27 -15 -113 2 -155 15 -36 60 -66 98 -64 15 0 18 3
8 6 -8 4 -20 13 -26 21 -6 8 -16 12 -21 9 -6 -4 -15 -1 -20 6 -16 21 -33 92
-24 95 6 2 5 16 -1 34 -8 23 -8 36 1 49 6 11 8 19 3 19 -4 0 -13 -9 -20 -20z"/>
<path d="M1950 1783 c1 -14 40 -56 47 -49 10 9 -18 56 -34 56 -7 0 -13 -3 -13
-7z"/>
<path d="M1822 1720 c-29 -13 -42 -25 -42 -39 0 -13 6 -18 18 -16 78 16 93 14
102 -11 5 -13 15 -24 22 -24 10 0 10 -2 -1 -9 -8 -5 -10 -14 -6 -22 12 -19 24
21 15 47 -5 11 -5 26 -1 33 6 10 10 9 14 -3 4 -9 14 -16 24 -16 16 0 16 2 3
11 -12 8 -10 9 10 5 35 -7 59 8 34 22 -12 7 -23 7 -34 0 -12 -8 -29 -4 -66 15
l-50 25 -42 -18z"/>
<path d="M2167 1712 c-7 -16 -18 -27 -24 -25 -17 6 -16 1 2 -33 23 -44 18 -74
-25 -159 -22 -43 -40 -84 -40 -91 0 -6 -12 -33 -27 -60 -50 -93 -87 -116 -117
-72 -13 19 -16 19 -22 5 -3 -9 -3 -21 1 -27 3 -5 2 -10 -2 -10 -5 0 -9 -30 -8
-67 0 -38 -4 -106 -9 -153 -23 -234 -22 -238 64 -310 32 -26 50 -50 50 -63 0
-41 -72 -139 -115 -158 -11 -5 -27 -13 -35 -18 -33 -20 -111 -51 -129 -51 -11
0 -23 -4 -26 -10 -3 -5 -21 -10 -40 -10 -19 0 -37 -5 -40 -11 -4 -5 -12 -8
-18 -6 -7 2 -23 -1 -37 -8 -17 -8 -73 -11 -176 -10 l-150 3 20 -23 c18 -20 22
-21 35 -7 10 10 16 11 19 3 2 -6 8 -8 13 -5 6 3 16 0 24 -6 11 -9 15 -9 15 -1
0 17 40 13 46 -4 6 -14 8 -14 19 1 15 21 61 12 68 -14 3 -12 5 -11 6 6 1 20 6
23 34 21 17 -1 45 3 61 10 22 9 32 9 44 -1 11 -9 14 -9 9 -1 -5 7 1 17 14 23
17 9 24 8 40 -6 18 -16 19 -16 13 -1 -4 12 1 20 20 27 14 5 32 7 40 4 7 -3 16
2 19 10 7 17 37 22 37 6 0 -5 5 -10 11 -10 5 0 7 5 4 10 -12 19 15 41 36 29
11 -5 19 -6 18 -2 -4 26 3 35 25 31 18 -4 22 -1 19 13 -6 21 15 35 30 20 6 -6
15 -11 20 -11 5 0 1 7 -8 16 -12 12 -13 19 -4 30 6 8 15 12 19 9 5 -3 6 4 3
15 -3 12 0 20 7 20 7 0 10 6 7 14 -3 8 0 20 8 26 11 9 11 16 0 43 -8 18 -19
31 -25 30 -5 -2 -10 5 -10 15 0 10 -14 29 -31 41 -50 37 -56 63 -43 198 6 65
7 119 3 121 -4 2 -4 15 2 28 5 14 9 40 9 57 0 55 10 78 30 72 30 -9 89 52 127
130 18 38 33 77 33 87 0 10 4 18 9 18 8 0 34 52 33 64 -1 3 5 17 13 32 14 27
13 35 -4 92 -5 18 -6 30 -1 27 4 -3 10 2 14 10 3 8 2 14 -2 14 -19 -3 -22 3
-12 21 6 11 8 20 5 20 -3 0 -11 -13 -18 -28z"/>
<path d="M1570 1694 c0 -11 6 -14 23 -9 19 6 20 6 6 -6 -24 -21 -28 -42 -14
-74 12 -27 13 -28 14 -7 1 23 20 35 74 46 15 4 27 10 27 15 0 11 -34 10 -41
-2 -4 -5 -15 -7 -25 -3 -13 5 -14 10 -6 18 8 8 7 14 -3 24 -19 19 -55 18 -55
-2z"/>
<path d="M2083 1690 c-13 -5 -23 -8 -23 -5 0 2 -14 -9 -31 -25 -18 -16 -28
-33 -24 -40 5 -8 13 -5 26 9 27 28 38 27 70 -11 26 -31 28 -31 29 -11 0 12 -6
28 -13 35 -8 6 -11 22 -9 35 2 13 3 23 1 22 -2 0 -14 -4 -26 -9z"/>
<path d="M1440 1670 c0 -4 17 -12 39 -18 40 -13 88 -16 79 -6 -10 9 -118 32
-118 24z"/>
<path d="M1956 1609 c-14 -29 -15 -35 -2 -44 12 -9 12 -13 0 -30 -13 -18 -20
-10 -15 18 1 5 -3 6 -9 2 -5 -3 -10 -1 -10 5 0 38 -63 46 -73 10 -6 -23 11
-31 36 -18 25 13 36 0 14 -16 -9 -7 -17 -17 -17 -22 0 -4 5 -3 12 4 14 14 38
16 38 2 0 -5 -12 -13 -26 -16 -17 -5 -22 -10 -15 -17 7 -7 15 -6 26 3 8 7 15
9 15 6 0 -12 25 17 33 37 3 9 13 17 21 17 24 0 27 -31 7 -66 -11 -19 -16 -34
-11 -34 5 0 12 9 15 20 3 11 11 20 16 20 17 0 9 -39 -13 -60 -12 -11 -17 -20
-11 -20 28 0 63 65 49 88 -3 6 1 12 9 16 8 3 15 11 15 18 0 9 -3 8 -10 -2 -8
-13 -11 -13 -27 2 -16 17 -16 19 5 48 13 16 18 30 12 30 -5 0 -10 -4 -10 -10
0 -12 -40 -34 -47 -26 -3 3 -1 12 5 19 9 10 8 18 -2 32 -12 17 -14 16 -30 -16z"/>
<path d="M2552 1563 c-7 -3 -17 -14 -23 -25 -9 -16 -8 -19 3 -16 7 3 21 1 31
-4 12 -6 17 -5 16 4 -1 25 -14 45 -27 41z"/>
<path d="M2770 1556 c0 -13 20 -26 41 -26 5 0 9 9 9 20 0 15 -7 20 -25 20 -15
0 -25 -6 -25 -14z"/>
<path d="M1919 1464 c-8 -10 -9 -18 -2 -22 5 -4 12 -14 15 -22 3 -8 6 2 6 23
0 42 -1 43 -19 21z"/>
<path d="M1123 1428 c2 -13 18 -33 36 -45 18 -12 27 -24 21 -28 -5 -3 -10 -11
-10 -16 0 -6 7 -3 16 5 8 9 24 16 35 16 10 0 19 6 19 13 0 19 81 37 103 23 25
-16 45 7 27 30 -17 20 -73 13 -101 -12 -15 -14 -22 -15 -31 -6 -15 15 -32 16
-23 2 3 -5 2 -17 -3 -26 -7 -13 -15 -8 -45 25 -42 47 -48 49 -44 19z"/>
<path d="M1926 1391 c-4 -5 -3 -17 1 -27 4 -12 3 -15 -5 -10 -14 8 -16 -13 -3
-32 6 -10 10 -6 14 15 3 15 9 36 12 46 7 17 -9 24 -19 8z"/>
<path d="M1300 1340 c0 -5 7 -10 16 -10 11 0 14 -6 9 -20 -4 -12 0 -26 9 -35
13 -13 16 -13 30 1 9 8 14 20 11 25 -8 13 -16 11 -12 -2 1 -6 -3 -13 -10 -16
-8 -3 -10 4 -7 21 3 18 -1 28 -15 36 -25 13 -31 13 -31 0z"/>
<path d="M1360 1343 c0 -6 7 -16 15 -23 9 -7 13 -21 10 -31 -7 -21 5 -25 23
-7 9 9 12 8 12 -6 0 -9 5 -14 10 -11 8 5 7 11 -1 21 -14 17 2 19 19 2 9 -9 12
-9 12 0 0 19 -28 26 -45 12 -8 -7 -15 -8 -15 -3 0 6 -9 20 -20 33 -11 13 -20
18 -20 13z"/>
<path d="M1249 1320 c-10 -7 -10 -14 -1 -34 11 -26 36 -27 45 -3 6 18 -28 46
-44 37z"/>
<path d="M1478 1318 c12 -6 21 -18 20 -26 -2 -8 3 -17 10 -19 6 -3 12 0 12 6
0 15 -37 51 -52 50 -7 0 -3 -5 10 -11z"/>
<path d="M1720 1311 c0 -6 5 -11 10 -11 6 0 10 -5 10 -11 0 -6 -7 -8 -16 -5
-8 3 -12 2 -9 -3 3 -5 1 -12 -5 -16 -6 -4 -8 -11 -4 -16 3 -5 10 -7 15 -3 5 3
7 10 4 15 -4 5 1 9 9 9 20 0 21 24 1 40 -10 9 -15 9 -15 1z"/>
<path d="M1456 1245 c4 -8 11 -15 17 -15 8 0 8 -3 1 -10 -7 -7 -19 -8 -36 -1
-14 5 -29 7 -32 3 -7 -6 -20 -9 -94 -15 -23 -2 -45 -7 -49 -11 -9 -8 -34 14
-27 25 3 5 -4 9 -15 9 -10 0 -28 3 -38 6 -14 4 -13 1 5 -12 30 -23 28 -38 -5
-31 -16 2 -37 1 -48 -3 -15 -7 -9 -9 25 -11 79 -3 94 -2 171 9 85 13 128 8
145 -14 10 -12 13 -12 17 -2 3 7 6 2 7 -12 1 -15 4 -19 7 -11 4 11 10 8 24
-10 15 -20 19 -21 19 -6 0 9 -4 17 -9 17 -9 0 -21 26 -25 56 -1 7 -6 17 -10
21 -4 4 -6 2 -4 -6 2 -7 -3 -16 -11 -18 -8 -4 -12 0 -9 8 6 17 -9 49 -22 49
-5 0 -7 -7 -4 -15z"/>
<path d="M1510 1114 c0 -8 5 -12 10 -9 13 8 13 -8 -1 -22 -7 -7 -6 -12 3 -16
12 -4 16 17 9 56 -2 14 -21 7 -21 -9z"/>
<path d="M1768 1113 c-10 -2 -18 -9 -18 -15 0 -5 7 -7 16 -4 8 3 25 1 37 -5
22 -12 22 -12 3 10 -11 11 -20 20 -20 20 -1 -1 -9 -3 -18 -6z"/>
<path d="M1206 1073 c-8 -19 -1 -27 13 -18 6 3 9 11 6 16 -4 5 -1 9 4 9 6 0
11 -4 11 -10 0 -6 9 -6 25 0 22 8 25 7 25 -13 0 -14 -3 -18 -8 -10 -4 7 -13 9
-19 5 -8 -5 -7 -12 3 -26 8 -11 14 -14 14 -8 0 7 9 12 19 12 11 0 23 5 26 11
4 5 12 8 18 6 17 -6 47 11 47 26 0 9 -25 13 -89 14 -73 1 -91 -2 -95 -14z"/>
<path d="M1710 1070 c0 -17 28 -30 50 -22 20 7 19 9 -14 19 -20 6 -36 8 -36 3z"/>
<path d="M1222 1045 c-6 -11 -13 -19 -16 -17 -12 5 -39 2 -33 -4 9 -10 66 -15
70 -6 3 4 1 16 -3 27 -7 19 -7 19 -18 0z"/>
<path d="M1705 1043 c8 -10 -15 -32 -29 -27 -8 3 -12 -3 -11 -18 1 -13 -2 -26
-7 -29 -5 -3 -2 -9 7 -12 10 -5 14 -3 9 5 -5 7 0 9 14 6 12 -4 25 -1 29 4 3 6
1 8 -5 4 -6 -3 -13 -2 -17 4 -4 6 -11 7 -17 4 -6 -4 -8 -2 -5 4 4 5 15 8 26 5
14 -4 18 1 17 21 -1 14 -5 28 -9 31 -4 3 -5 2 -2 -2z"/>
<path d="M1540 949 c0 -18 26 -33 41 -23 14 8 10 -3 -7 -20 -19 -20 -6 -20 20
-1 16 12 17 17 6 30 -7 9 -20 13 -28 10 -9 -3 -19 0 -24 7 -6 10 -8 9 -8 -3z"/>
<path d="M1705 940 c-4 -6 -16 -8 -28 -5 -20 6 -21 5 -3 -6 13 -8 15 -13 6
-19 -7 -5 -2 -7 14 -7 15 0 29 4 33 10 4 6 0 8 -10 4 -20 -7 -22 4 -5 21 7 7
9 12 6 12 -4 0 -10 -5 -13 -10z"/>
<path d="M1265 920 c-3 -11 -11 -20 -16 -20 -6 0 -7 -5 -4 -10 6 -10 15 -4 44
33 12 15 11 17 -2 17 -9 0 -19 -9 -22 -20z"/>
<path d="M1382 911 c-8 -4 -14 -12 -15 -17 -1 -5 -6 -8 -10 -6 -5 1 -6 -2 -3
-7 7 -11 41 -7 41 5 0 5 4 15 8 22 9 14 -2 16 -21 3z"/>
<path d="M1514 892 c-20 -13 -26 -49 -9 -56 9 -3 14 -2 11 3 -10 15 21 20 56
10 40 -11 38 -11 38 2 0 5 -4 8 -9 5 -5 -3 -14 0 -20 8 -7 8 -20 12 -30 9 -10
-3 -22 1 -26 8 -5 8 -4 10 3 5 7 -4 12 -2 12 3 0 13 -10 14 -26 3z"/>
<path d="M1258 873 c-20 -5 -25 -25 -5 -22 27 3 39 -2 34 -14 -3 -8 1 -14 9
-14 18 0 17 7 -4 33 -9 11 -25 19 -34 17z"/>
<path d="M1463 833 c10 -17 -20 -36 -48 -31 -17 4 -25 1 -25 -9 0 -8 -4 -11
-10 -8 -5 3 -10 1 -10 -4 0 -6 7 -11 15 -11 8 0 15 4 15 10 0 19 30 -3 31 -24
1 -18 2 -18 6 -3 4 15 12 18 38 15 19 -2 31 0 29 4 -3 4 6 8 20 8 14 0 26 5
26 10 0 6 11 8 27 4 26 -7 27 -6 12 9 -15 15 -20 15 -54 -3 -36 -18 -39 -18
-51 -2 -7 9 -10 20 -8 24 2 4 -1 10 -7 14 -7 4 -9 3 -6 -3z"/>
<path d="M1387 756 c-24 -11 -26 -14 -14 -25 12 -9 17 -9 23 0 5 9 10 7 15 -7
6 -14 8 -11 6 14 -1 17 -1 32 -2 31 0 0 -13 -6 -28 -13z"/>
</g>
</svg>
