<svg version="1.1" viewBox="0.0 0.0 960.0 540.0" fill="none" stroke="none" stroke-linecap="square" stroke-miterlimit="10" xmlns:xlink="http://www.w3.org/1999/xlink" xmlns="http://www.w3.org/2000/svg"><clipPath id="p.0"><path d="m0 0l960.0 0l0 540.0l-960.0 0l0 -540.0z" clip-rule="nonzero"/></clipPath><g clip-path="url(#p.0)"><path fill="#ffffff" d="m0 0l960.0 0l0 540.0l-960.0 0z" fill-rule="evenodd"/><path fill="#000000" fill-opacity="0.0" d="m8.834645 30.199474l942.3307 0l0 193.48032l-942.3307 0z" fill-rule="evenodd"/><path fill="#000000" d="m117.67907 198.35104q1.796875 2.71875 1.109375 4.96875q-0.671875 2.265625 -2.703125 3.3125q-2.03125 1.0625 -4.515625 0.53125q-2.484375 -0.515625 -4.140625 -3.390625l-9.796875 -15.515625q-5.125 -8.578125 -16.71875 -8.578125l0 0q-14.765625 0 -25.687504 -6.703125q-10.921875 -6.703125 -16.875 -18.90625q-5.953125 -12.203125 -5.953125 -28.9375q0 -16.71875 5.875 -28.921875q5.875 -12.203125 16.796875 -18.828125q10.921879 -6.625 25.843754 -6.625q15.0625 0 25.984375 6.625q10.921875 6.625 16.875 18.75q5.9531174 12.125 5.9531174 28.859375q0 19.4375 -8.062492 32.765625q-8.0625 13.328125 -22.078125 18.75q3.171875 1.0625 5.734375 3.546875q2.5625 2.484375 5.265625 6.859375l7.09375 11.4375zm-36.765625 -29.671875q17.015625 0 26.359375 -11.453125q9.34375 -11.453125 9.34375 -32.09375q0 -20.640625 -9.34375 -32.015625q-9.34375 -11.375 -26.359375 -11.375q-16.71875 0 -26.062504 11.375q-9.34375 11.375 -9.34375 32.015625q0 20.5 9.34375 32.03125q9.343754 11.515625 26.062504 11.515625zm112.83457 11.0q-20.9375 0 -31.78125 -11.078125q-10.84375 -11.078125 -10.84375 -32.3125l0 -58.90625q0 -6.328125 6.171875 -6.328125q6.171875 0 6.171875 6.328125l0 58.296875q0 33.0 30.28125 33.0q29.984375 0 29.984375 -33.0l0 -58.296875q0 -6.328125 6.328125 -6.328125q6.03125 0 6.03125 6.328125l0 58.90625q0 21.234375 -10.78125 32.3125q-10.765625 11.078125 -31.5625 11.078125zm64.78378 -0.3125q-3.609375 0 -4.96875 -2.40625q-1.359375 -2.40625 0.296875 -6.015625l41.4375 -94.3125q2.40625 -5.578125 7.375 -5.578125q2.265625 0 4.140625 1.28125q1.890625 1.28125 3.09375 4.296875l41.578125 94.3125q1.65625 3.609375 0.453125 6.015625q-1.203125 2.40625 -4.8125 2.40625q-2.71875 0 -4.375 -1.421875q-1.65625 -1.4375 -2.703125 -4.140625l-9.796875 -22.609375l-55.296875 0l-9.640625 22.609375q-2.40625 5.5625 -6.78125 5.5625zm44.0 -92.796875l-23.0625 54.234375l46.40625 0l-23.046875 -54.234375l-0.296875 0zm73.969025 92.796875q-5.875 0 -5.875 -6.171875l0 -95.8125q0 -6.328125 5.421875 -6.328125q2.265625 0 3.46875 0.828125q1.203125 0.828125 2.703125 2.9375l62.078125 82.703125l0 -80.4375q0 -6.03125 5.875 -6.03125q5.578125 0 5.578125 6.03125l0 96.265625q0 6.015625 -4.984375 6.015625q-2.25 0 -3.609375 -0.90625q-1.359375 -0.890625 -2.859375 -2.859375l-62.078125 -83.0l0 80.59375q0 6.171875 -5.71875 6.171875zm137.845 0q-6.171875 0 -6.171875 -6.46875l0 -90.09375l-33.90625 0q-5.71875 0 -5.71875 -5.421875q0 -5.28125 5.71875 -5.28125l80.3125 0q5.71875 0 5.71875 5.28125q0 5.421875 -5.71875 5.421875l-33.90625 0l0 90.09375q0 6.46875 -6.328125 6.46875z" fill-rule="nonzero"/><path fill="#999999" d="m646.0196 179.67917q-10.84375 0 -20.421875 -2.640625q-9.5625 -2.640625 -16.484375 -7.765625q-2.40625 -1.65625 -2.859375 -3.90625q-0.453125 -2.265625 0.515625 -4.21875q0.984375 -1.96875 2.9375 -2.640625q1.96875 -0.671875 4.53125 0.984375q6.78125 4.96875 14.453125 7.078125q7.6875 2.109375 17.328125 2.109375q13.5625 0 20.109375 -5.046875q6.5625 -5.046875 6.5625 -13.328125q0 -6.640625 -4.75 -10.546875q-4.75 -3.921875 -15.890625 -6.1875l-15.671875 -3.15625q-14.15625 -3.015625 -21.171875 -9.859375q-7.0 -6.859375 -7.0 -18.3125q0 -9.5 4.890625 -16.578125q4.90625 -7.078125 13.640625 -10.984375q8.734375 -3.921875 20.1875 -3.921875q9.5 0 17.703125 2.640625q8.21875 2.625 14.84375 7.90625q2.109375 1.65625 2.484375 3.84375q0.375 2.171875 -0.6875 3.984375q-1.046875 1.8125 -3.015625 2.34375q-1.953125 0.515625 -4.65625 -1.140625q-6.03125 -4.671875 -12.59375 -6.625q-6.546875 -1.96875 -14.234375 -1.96875q-11.890625 0 -18.984375 5.5q-7.078125 5.5 -7.078125 14.546875q0 7.234375 4.4375 11.453125q4.453125 4.21875 14.546875 6.171875l15.671875 3.3125q15.21875 3.171875 22.515625 9.578125q7.3125 6.390625 7.3125 17.390625q0 8.890625 -4.75 15.671875q-4.734375 6.78125 -13.546875 10.546875q-8.8125 3.765625 -20.875 3.765625zm64.48169 -0.3125q-6.171875 0 -6.171875 -6.46875l0 -94.46875q0 -6.328125 6.328125 -6.328125l35.703125 0q17.171875 0 26.28125 8.296875q9.125 8.28125 9.125 23.640625q0 15.21875 -9.125 23.59375q-9.109375 8.359375 -26.28125 8.359375l-29.6875 0l0 36.90625q0 6.46875 -6.171875 6.46875zm6.171875 -53.78125l28.1875 0q24.703125 0 24.703125 -21.546875q0 -21.6875 -24.703125 -21.6875l-28.1875 0l0 43.234375zm89.19354 53.78125q-6.171875 0 -6.171875 -6.46875l0 -95.359375q0 -6.484375 6.171875 -6.484375q6.171875 0 6.171875 6.484375l0 95.359375q0 6.46875 -6.171875 6.46875zm38.421753 0q-5.875 0 -5.875 -6.171875l0 -95.8125q0 -6.328125 5.421875 -6.328125q2.265625 0 3.46875 0.828125q1.203125 0.828125 2.703125 2.9375l62.078125 82.703125l0 -80.4375q0 -6.03125 5.875 -6.03125q5.578125 0 5.578125 6.03125l0 96.265625q0 6.015625 -4.984375 6.015625q-2.25 0 -3.609375 -0.90625q-1.359375 -0.890625 -2.859375 -2.859375l-62.078125 -83.0l0 80.59375q0 6.171875 -5.71875 6.171875z" fill-rule="nonzero"/><path fill="#00ffff" d="m557.3341 317.6229l0 0c0 -57.58548 47.20404 -104.267715 105.433105 -104.267715l0 0c27.962585 0 54.779907 10.985306 74.55243 30.539307c19.772522 19.55397 30.880615 46.074875 30.880615 73.72841l0 0c0 57.58548 -47.20398 104.2677 -105.433044 104.2677l0 0c-58.229065 0 -105.433105 -46.68222 -105.433105 -104.2677z" fill-rule="evenodd"/><path stroke="#595959" stroke-width="1.0" stroke-linejoin="round" stroke-linecap="butt" d="m557.3341 317.6229l0 0c0 -57.58548 47.20404 -104.267715 105.433105 -104.267715l0 0c27.962585 0 54.779907 10.985306 74.55243 30.539307c19.772522 19.55397 30.880615 46.074875 30.880615 73.72841l0 0c0 57.58548 -47.20398 104.2677 -105.433044 104.2677l0 0c-58.229065 0 -105.433105 -46.68222 -105.433105 -104.2677z" fill-rule="evenodd"/><path fill="#eeff41" d="m153.23001 393.0363l0 0c0 -59.81201 47.203995 -108.299194 105.433075 -108.299194l0 0c27.962585 0 54.779907 11.410034 74.55243 31.720093c19.772552 20.310028 30.880646 47.856354 30.880646 76.5791l0 0c0 59.81201 -47.20401 108.299225 -105.433075 108.299225l0 0c-58.22908 0 -105.433075 -48.487213 -105.433075 -108.299225z" fill-rule="evenodd"/><path stroke="#595959" stroke-width="1.0" stroke-linejoin="round" stroke-linecap="butt" d="m153.23001 393.0363l0 0c0 -59.81201 47.203995 -108.299194 105.433075 -108.299194l0 0c27.962585 0 54.779907 11.410034 74.55243 31.720093c19.772552 20.310028 30.880646 47.856354 30.880646 76.5791l0 0c0 59.81201 -47.20401 108.299225 -105.433075 108.299225l0 0c-58.22908 0 -105.433075 -48.487213 -105.433075 -108.299225z" fill-rule="evenodd"/><path fill="#000000" fill-opacity="0.0" d="m449.78906 208.32283l1.7008057 298.07874" fill-rule="evenodd"/><path stroke="#595959" stroke-width="1.0" stroke-linejoin="round" stroke-linecap="butt" d="m449.78906 208.32283l1.7008057 298.07874" fill-rule="evenodd"/><path fill="#000000" fill-opacity="0.0" d="m129.04137 228.72139l-105.44882 128.91338" fill-rule="evenodd"/><path stroke="#595959" stroke-width="3.0" stroke-linejoin="round" stroke-linecap="butt" d="m129.04137 228.72139l-105.44882 128.91338" fill-rule="evenodd"/><path fill="#000000" fill-opacity="0.0" d="m25.33226 357.6126l96.7874 138.74017" fill-rule="evenodd"/><path stroke="#595959" stroke-width="3.0" stroke-linejoin="round" stroke-linecap="butt" d="m25.33226 357.6126l96.7874 138.74017" fill-rule="evenodd"/><path fill="#000000" fill-opacity="0.0" d="m838.8311 220.65802l96.787415 145.03937" fill-rule="evenodd"/><path stroke="#595959" stroke-width="3.0" stroke-linejoin="round" stroke-linecap="butt" d="m838.8311 220.65802l96.787415 145.03937" fill-rule="evenodd"/><path fill="#000000" fill-opacity="0.0" d="m934.76904 365.6713l-95.08661 140.75592" fill-rule="evenodd"/><path stroke="#595959" stroke-width="3.0" stroke-linejoin="round" stroke-linecap="butt" d="m934.76904 365.6713l-95.08661 140.75592" fill-rule="evenodd"/><path fill="#000000" fill-opacity="0.0" d="m333.2155 316.45718l67.84253 -79.65355" fill-rule="evenodd"/><path stroke="#595959" stroke-width="3.0" stroke-linejoin="round" stroke-linecap="butt" d="m333.21555 316.45718l61.176025 -71.82648" fill-rule="evenodd"/><path fill="#595959" stroke="#595959" stroke-width="3.0" stroke-linecap="butt" d="m394.39157 244.63069l0.38085938 4.7559814l3.441864 -9.244217l-8.578705 4.8690796z" fill-rule="evenodd"/><path fill="#000000" fill-opacity="0.0" d="m588.2148 391.3513l-66.14172 96.8819" fill-rule="evenodd"/><path stroke="#595959" stroke-width="3.0" stroke-linejoin="round" stroke-linecap="butt" d="m588.2148 391.3513l-60.344788 88.39075" fill-rule="evenodd"/><path fill="#595959" stroke="#595959" stroke-width="3.0" stroke-linecap="butt" d="m527.87 479.74203l-0.88409424 -4.688568l-2.4400635 9.557617l8.012756 -5.7531433z" fill-rule="evenodd"/></g></svg>